<svg xmlns="http://www.w3.org/2000/svg" width="1094" height="1214" viewBox="0 0 1094 1214">
    <g>
        <path d="M374.378 922.033c-.701-347.224 245.073-646.228 586.16-713.11l-25.852-14.868c-43.903 9.698-86.812 23.437-128.178 41.041-177.84 76.205-319.043 218.508-393.758 396.822-38.576 91.871-58.345 190.529-58.143 290.154-.224 72.757 9.531 145.2 28.996 215.312l24.767 14.21c-22.792-74.385-34.251-151.77-33.992-229.56"/>
        <path d="M451.587 921.878c-.998-348.095 274.255-634.405 622.478-647.483l-34.302-19.785c-70.216 5.698-139.05 22.695-203.836 50.334-159.653 68.446-286.45 196.162-353.643 356.207-34.643 82.504-52.395 171.104-52.209 260.573-.554 92.185 17.191 183.566 52.21 268.858.594 1.523 1.227 3.059 1.899 4.608l31.86 18.39c-42.981-91.22-65.004-190.884-64.457-291.702M838.717 921.182c-.478-141.389 113.236-256.727 254.767-258.405v-31.672c-76.122.267-148.975 30.938-202.325 85.18-54.303 54.483-84.652 128.324-84.34 205.206-.322 48.992 11.46 97.307 34.301 140.663l27.132-15.72c-19.94-38.602-30.195-81.466-29.884-124.904M142.13 922.42c-.375-371.195 213.25-709.429 548.797-868.912l-14.69-8.518C463.512 148.462 295.76 325.74 204.301 543.72c-50.384 119.912-76.202 248.694-75.932 378.74 0 23.231.738 46.23 2.211 68.996l14.341 8.208c-1.834-25.399-2.752-51.134-2.752-77.204"/>
        <path d="M916.043 921.065c-.35-98.622 78.876-179.128 177.596-180.465v-33.685c-117.32 1.381-211.606 96.95-211.278 214.15-.23 35.743 8.272 71.001 24.767 102.72l29.07-16.727c-13.533-26.65-20.484-56.15-20.272-86.031M64.689 922.575c-.386-382.194 209.243-733.765 545.85-915.45L598.176 0C389.983 114.218 226.644 295.493 134.766 514.293 80.5 643.57 52.693 782.393 52.981 922.575c0 8.131 0 16.185.235 24.2l11.9 6.891c-.31-10.299-.427-20.675-.427-30.974"/>
        <path d="M219.495 922.304c-.436-361.216 219.472-686.253 555.153-820.553l-17.52-9.989c-3.14 1.355-6.279 2.672-9.418 3.872-214.006 91.736-383.951 262.956-473.952 477.51-46.441 110.55-70.242 229.272-70.002 349.16-.023 38.465 2.177 76.899 6.591 115.11l17.132 9.834c-5.326-41.435-7.993-83.168-7.984-124.944"/>
        <path d="M296.859 922.188c-.488-352.806 229.285-664.73 566.626-769.213l-21.047-12.157c-22.041 7.227-43.811 15.423-65.31 24.586-96.985 41.314-184.982 101.112-259.069 176.051-153.375 154.41-239.23 363.25-238.76 580.772-.092 54.84 4.865 109.573 14.808 163.507l20.348 11.615c-11.687-57.68-17.53-116.389-17.441-175.238M656.082 921.491c-.472 75.438 17.828 149.811 53.256 216.435l23.76-13.745c-32.92-62.467-49.857-132.098-49.303-202.69-.797-227.2 182.33-412.346 409.766-414.284v-27.683c-116.192.11-227.49 46.747-308.99 129.473-82.681 82.982-128.91 195.416-128.489 312.494M.348 695.261v56.258c42.07-272.813 183.708-520.427 397.634-695.145l-48.023 27.76c-15.504 13.913-30.62 28.33-45.348 43.249C149.98 283.045 44.23 480.433.348 695.3M.348 465.663c39.739-96.15 91.858-186.713 155.038-269.4L136.86 206.91C82.362 280.754 36.521 360.595.232 444.87l.116 20.792zM993.445 920.872c-.18-55.752 44.395-101.365 100.194-102.526V782.61c-75.436 1.333-135.84 62.896-135.66 138.263-.077 22.53 5.24 44.753 15.505 64.814l31.008-17.965c-7.272-14.545-11.029-30.591-10.97-46.85"/>
        <path d="M677.943 502.02C567.162 613.663 505.17 764.604 505.54 921.8c-.684 101.865 24.096 202.289 72.093 292.167l20.194-11.615c-45.73-86.415-69.288-182.81-68.566-280.552-.991-312.78 251.27-567.541 564.378-569.97v-23.657c-78.485-.088-156.173 15.718-228.371 46.463-70.11 29.875-133.732 73.086-187.325 127.227M1070.848 920.756c-.056-12.914 9.9-23.67 22.79-24.625v-37.712c-21.001.747-40.22 11.99-51.148 29.923-10.927 17.932-12.097 40.15-3.114 59.13l32.906-18.973c-.828-2.499-1.26-5.111-1.279-7.743"/>
        <path d="M731.276 555.566c-96.652 97.319-150.78 228.917-150.542 366.003-.613 88.692 20.929 176.137 62.674 254.417l21.977-12.739c-39.312-74.465-59.552-157.495-58.915-241.678-.84-269.984 216.903-489.883 487.169-491.991v-25.71c-136.217.217-266.692 54.838-362.363 151.698"/>
        <path d="M731.586 921.375c-.395 62.206 14.64 123.542 43.76 178.53l25.503-14.675c-26.4-50.566-39.988-106.826-39.573-163.855-.647-184.383 147.943-334.649 332.518-336.267v-29.697c-96.202.078-188.353 38.698-255.813 107.21-68.457 68.715-106.737 161.811-106.395 258.754M627.749 808.047c19.336-79.989 58.723-153.75 114.457-214.343L725.927 550.3l-.504.503c-70.325 70.696-119.07 159.915-140.542 257.243h42.868zM534.455 251.358H498.02c-12.403 11.228-24.535 22.844-36.395 34.846l-2.791 2.788-21.822 58.813c29.902-34.635 62.469-66.883 97.403-96.447"/>
        <path d="M850.849 889.82c0-1.433.349-2.827.62-4.22l-31.007-82.47c-11.781 27.615-19.358 56.835-22.481 86.69h52.868zM772.206 889.859c4.086-41.95 16.275-82.71 35.891-120.027l-21.899-58.658c-36.019 53.18-57.711 114.733-62.984 178.723l48.992-.038zM547.633 808.047c9.091-44.292 23.511-87.323 42.946-128.157H548.64c-1.28 2.943-2.558 5.847-3.876 8.828-16.143 38.374-28.225 78.329-36.047 119.213l38.915.116zM467.982 808.047c7.906-43.85 20.35-86.76 37.132-128.04h-37.132c-15.783 41.44-27.467 84.325-34.883 128.04h34.883z"/>
        <path d="M407.478 630.68c-34.671 82.232-54.36 169.99-58.139 259.14h31.008c9.356-208.91 108.94-403.502 272.983-533.42l-11.356-30.548c-103.252 79.63-184.05 184.662-234.496 304.827"/>
        <path d="M362.479 549.759L298.02 724.455c-13.303 54.2-21.095 109.602-23.255 165.365h27.131c9.767-241.606 128.337-465.855 322.596-610.12l-10.039-26.832c-106.456 77.555-192.886 179.328-252.13 296.89M590.54 601.021l17.054 46.075c27.832-49.692 63.008-94.908 104.34-134.12l-14.457-38.718c-8.5 7.744-16.795 15.617-24.883 23.618-31.054 31.284-58.582 65.872-82.093 103.145M666.974 808.047l27.403 73.565c7.317-73.849 34.773-144.277 79.38-203.619l-18.528-49.482c-44.52 51.923-76.553 113.337-93.643 179.536h5.388zM558.835 515.532l14.496 39.105c31.12-44.624 67.782-85.124 109.108-120.53l-12.946-34.536c-17.21 14.248-33.76 29.361-49.651 45.339-21.94 22.11-42.324 45.706-61.007 70.622"/>
    </g>
</svg>