<svg xmlns="http://www.w3.org/2000/svg" width="158" height="32" viewBox="0 0 158 32">
  <g fill="none">
      <g fill="#263238">
          <path d="M5.851 12.19h3.857l-1.95-5.264-1.907 5.264zm.126-10.885h3.587l6.061 16.212h-3.943l-.774-2.082H4.677l-.735 2.078H0L5.977 1.305zM21.134 4.848v4.593h1.845c.642.086 1.288-.121 1.76-.565.471-.443.718-1.075.671-1.721.013-.645-.25-1.265-.722-1.705-.472-.44-1.11-.659-1.752-.601l-1.802-.001zm-3.8-3.544h6c1.584-.078 3.129.51 4.26 1.62 1.131 1.112 1.746 2.646 1.696 4.231-.007 1.579-.658 3.086-1.802 4.175-1.144 1.088-2.682 1.663-4.259 1.592h-2.1v4.594h-3.8l.005-16.212zM35.113 4.535v4.74h2.118c.67.07 1.338-.156 1.826-.62.489-.465.749-1.12.712-1.793-.018-.656-.304-1.276-.791-1.716-.487-.44-1.133-.661-1.788-.612l-2.077.001zm-3.8-3.229h6.545c1.515-.092 3 .458 4.089 1.515 1.089 1.058 1.683 2.525 1.636 4.042.055 2.38-1.509 4.494-3.8 5.139l3.944 5.515H39.51l-3.642-5.282h-.755v5.285h-3.8V1.306zM50.749 12.19h3.859l-1.95-5.264-1.909 5.264zm.127-10.885h3.59l6.06 16.212h-3.943l-.775-2.078h-6.229l-.733 2.078h-3.943l5.973-16.212zM73.326 12.222h3.859l-1.95-5.263-1.909 5.263zm.124-10.884h3.587l6.061 16.212h-3.943l-.775-2.077h-6.228l-.735 2.077h-3.943L73.45 1.338zM84.812 1.336L88.482 1.336 93.223 8.508 98.023 1.336 101.798 1.336 101.798 17.548 98.129 17.548 98.129 7.586 97.981 7.586 93.221 14.486 88.543 7.628 88.48 7.628 88.48 17.547 84.81 17.547zM104.456 9.411c.004-3.457 2.12-6.561 5.336-7.83 3.216-1.268 6.88-.444 9.244 2.08l-2.688 2.6c-1.308-1.46-3.381-1.963-5.213-1.263-1.831.7-3.04 2.458-3.04 4.418 0 1.961 1.209 3.718 3.04 4.419 1.832.7 3.905.198 5.213-1.263l2.685 2.58c-2.362 2.52-6.023 3.344-9.237 2.078-3.214-1.266-5.33-4.365-5.34-7.819M132.825 9.411c-.063-2.537-2.158-4.55-4.696-4.51-2.538.04-4.57 2.116-4.552 4.654.016 2.538 2.075 4.589 4.613 4.595 1.244-.01 2.433-.516 3.303-1.406.87-.89 1.35-2.089 1.332-3.333m-13.064 0c-.013-3.417 2.037-6.505 5.19-7.82 3.155-1.316 6.791-.6 9.21 1.814 2.42 2.413 3.145 6.047 1.838 9.205-1.308 3.157-4.39 5.214-7.808 5.21-2.234.005-4.377-.879-5.959-2.456-1.581-1.578-2.47-3.72-2.471-5.953M137.705 15.408l2.37-2.957c.89 1.121 2.203 1.827 3.629 1.952 1.069 0 1.8-.567 1.8-1.366 0-.753-.358-1.34-1.427-1.781l-1.7-.691c-2.412-.986-3.628-2.287-3.628-4.594.088-2.705 2.327-4.84 5.033-4.8 1.9-.079 3.75.626 5.117 1.95l-2.138 2.831c-.715-.913-1.82-1.432-2.979-1.4-.943 0-1.468.524-1.468 1.195s.482 1.048 1.406 1.426l1.8.734c2.475 1.006 3.649 2.726 3.649 4.782 0 2.935-2.118 5.1-5.683 5.1-2.159-.035-4.225-.881-5.789-2.37" transform="translate(7.617 5.707)"/>
      </g>
  </g>
</svg>