<?xml version="1.0" encoding="UTF-8"?>
<svg width="32px" height="32px" viewBox="0 0 32 32" version="1.1" xmlns="http://www.w3.org/2000/svg" xmlns:xlink="http://www.w3.org/1999/xlink">
    <title>attach_audio_32x32_icn</title>
    <g id="attach_audio_32x32_icn" stroke="none" stroke-width="1" fill="none" fill-rule="evenodd">
        <g fill="#263238" fill-rule="nonzero">
            <g id="music_note_slate" transform="translate(10.000000, 5.000000)">
                <path d="M6.5,4 C6.5,3.77347465 6.65229197,3.57524965 6.87116867,3.51688253 L6.87116867,3.51688253 L18.1211687,0.51688253 C18.438592,0.43223632 18.75,0.671484362 18.75,1 L18.75,1 L18.749,4.23972691 L18.75,4.25 L18.75,17 C18.75,18.9329966 17.1829966,20.5 15.25,20.5 C13.3170034,20.5 11.75,18.9329966 11.75,17 C11.75,15.0670034 13.3170034,13.5 15.25,13.5 L15.25,13.5 L17.75,13.4997269 L17.75,5.43672691 L7.5,8.17072691 L7.5,20 C7.5,21.8685634 6.0357224,23.3951264 4.1920352,23.4948211 L4,23.5 C2.06700338,23.5 0.5,21.9329966 0.5,20 C0.5,18.0670034 2.06700338,16.5 4,16.5 L4,16.5 L6.5,16.4997269 Z M6.5,17.5 L4,17.5 C2.61928813,17.5 1.5,18.6192881 1.5,20 C1.5,21.3807119 2.61928813,22.5 4,22.5 C5.38071187,22.5 6.5,21.3807119 6.5,20 L6.5,20 L6.5,17.5 Z M17.75,14.5 L15.25,14.5 C13.8692881,14.5 12.75,15.6192881 12.75,17 C12.75,18.3807119 13.8692881,19.5 15.25,19.5 C16.6307119,19.5 17.75,18.3807119 17.75,17 L17.75,17 L17.75,14.5 Z M17.749,1.651 L7.5,4.384 L7.5,7.136 L17.749,4.403 L17.749,1.651 Z" id="Combined-Shape"></path>
            </g>
            <path d="M8,5.5 C8.24545989,5.5 8.44960837,5.67687516 8.49194433,5.91012437 L8.5,6 L8.5,10.5 L13,10.5 C13.2761424,10.5 13.5,10.7238576 13.5,11 C13.5,11.2454599 13.3231248,11.4496084 13.0898756,11.4919443 L13,11.5 L8.5,11.5 L8.5,16 C8.5,16.2761424 8.27614237,16.5 8,16.5 C7.75454011,16.5 7.55039163,16.3231248 7.50805567,16.0898756 L7.5,16 L7.5,11.5 L3,11.5 C2.72385763,11.5 2.5,11.2761424 2.5,11 C2.5,10.7545401 2.67687516,10.5503916 2.91012437,10.5080557 L3,10.5 L7.5,10.5 L7.5,6 C7.5,5.72385763 7.72385763,5.5 8,5.5 Z" id="Shape"></path>
        </g>
    </g>
</svg>