<svg xmlns="http://www.w3.org/2000/svg" width="40" height="40" viewBox="0 0 40 40">
  <g fill="none" fill-rule="evenodd" stroke="#4B5A6E" stroke-width="1.127">
      <path d="M0 24.601c2.155 0 .352-3.699.352-10.47M.395 24.261c.798 6.23 17.257-8.533 18.478 1.984M18.592 26.734L21.314 24.292M21.02 24.557c.014.61-.034 10.156 9.59 7.04M28.92 0c-.122 9.39 16.949 14.131 1.347 31.702M.357 14.742c.173-6.855 9.55-3.99 9.55-8.92M15.869 4.32c-1.925-2.348-4.832 1.834-6.018 2.119M15.532 3.983c3.529-5.625 7.285-2.573 7.896-2.573M22.949 1.24c-1.635 3.783 5.36 10.356 5.971-.16M24.93 35.54c1.77 0 .885 1.126 3.204.599M25.352 35.294c-2.324 5.81 2.43 5.317 2.43.985" transform="translate(1)"/>
  </g>
</svg>