<svg xmlns="http://www.w3.org/2000/svg" width="25" height="9" viewBox="0 0 25 9">
  <path fill="#263238" d="M24.787.68h-1.26v1.344c0 1.699-.886 2.548-2.66 2.548-.578 0-1.577-.13-2.996-.392-1.4-.261-2.324-.392-2.772-.392-1.138 0-1.922.523-2.352 1.568-.373-1.045-1.157-1.568-2.352-1.568-.448 0-1.372.13-2.772.392-1.474.261-2.482.392-3.024.392-1.754 0-2.632-.85-2.632-2.548V.68H.707v1.512c0 2.501 1.204 3.752 3.612 3.752.822 0 1.988-.15 3.5-.448l1.064-.168c.579-.112 1.055-.168 1.428-.168 1.195 0 1.792.607 1.792 1.82v1.596h1.288V6.98c0-1.213.598-1.82 1.792-1.82.374 0 .859.056 1.456.168l1.036.168c1.494.299 2.651.448 3.472.448 2.427 0 3.64-1.25 3.64-3.752V.68z"/>
</svg>