<svg xmlns="http://www.w3.org/2000/svg" width="34" height="34" viewBox="0 0 34 34" 
  role="img" xmlns:xlink="http://www.w3.org/1999/xlink">
    <g fill="none" fill-rule="evenodd" stroke="#263238" stroke-linecap="round" stroke-linejoin="round" stroke-width="1.032">
        <path d="M7.174 12.903H.464M11.82 7.226V.516M7.69 8.774L2.942 4.026m21.78 15.07h6.71m-11.355 5.678v6.71m4.13-8.258l4.748 4.748M13.42 20.697c.93.944.93 2.462 0 3.406l-4.285 4.284c-.944.931-2.461.931-3.406 0l-2.064-2.064c-.932-.945-.932-2.462 0-3.407l4.283-4.284c.945-.931 2.462-.931 3.407 0l1.135-2.167c-1.926-1.42-4.6-1.222-6.296.464L1.96 21.213c-.907.901-1.418 2.127-1.418 3.406 0 1.28.51 2.506 1.418 3.407l2.065 2.064c.901.908 2.127 1.419 3.406 1.419 1.28 0 2.506-.51 3.407-1.419l4.284-4.284c1.686-1.697 1.883-4.37.464-6.296l-2.168 1.187zm5.264-9.394c-.931-.944-.931-2.462 0-3.406l4.284-4.284c.944-.931 2.462-.931 3.406 0l2.065 2.064c.931.945.931 2.462 0 3.407l-4.284 4.284c-.945.931-2.462.931-3.407 0l-1.135 2.167c1.926 1.42 4.6 1.222 6.297-.464l4.284-4.284c.907-.901 1.418-2.127 1.418-3.406 0-1.28-.51-2.506-1.418-3.407L28.129 1.91C27.228 1.002 26.002.49 24.723.49c-1.28 0-2.506.51-3.407 1.419l-4.335 4.284c-1.687 1.697-1.884 4.37-.465 6.296l2.168-1.187z" transform="translate(1 1)"/>
    </g>
  </svg>