<?xml version="1.0" encoding="UTF-8"?>
<svg width="48px" height="48px" viewBox="0 0 48 48" version="1.1" xmlns="http://www.w3.org/2000/svg" xmlns:xlink="http://www.w3.org/1999/xlink">
    <title>broken_link_48x48_1px_icn</title>
    <g id="broken_link_48x48_1px_icn" stroke="none" stroke-width="1" fill="none" fill-rule="evenodd">
        <g fill="#263238" fill-rule="nonzero" id="broken-link-icn">
            <g transform="translate(1.000000, 1.000000)">
                <path d="M18.4465357,23.5224251 C18.6204369,23.6505203 18.689775,23.8728866 18.627662,24.0729616 L18.5929158,24.1570035 L16.9429158,27.3070035 C16.7870779,27.6045122 16.3880803,27.6668369 16.1489362,27.4310255 C15.0182401,26.3160873 13.2291095,26.2714898 12.0479413,27.2950458 L11.9035534,27.4285534 L5.68102554,33.6510638 C4.56608735,34.7817599 4.52148982,36.5708905 5.54504576,37.7520587 L5.67855339,37.8964466 L8.67606383,40.8939745 C9.80675985,42.0089127 11.5958905,42.0535102 12.7770587,41.0299542 L12.9214466,40.8964466 L19.1439745,34.6739362 C20.3053684,33.4961278 20.3053684,31.6038722 19.1439745,30.4260638 C18.9320624,30.2111567 18.9605492,29.866205 19.1862569,29.6854562 L19.2598427,29.6364519 L22.4098427,27.9114519 C22.6294267,27.7912035 22.9040975,27.8518923 23.0525749,28.0534643 C25.2055014,30.976263 24.9675968,35.0038656 22.5210987,37.6525686 L22.3285534,37.8535534 L16.1048387,44.0772634 C14.7014715,45.4908903 12.7919289,46.2859258 10.8,46.2859258 C8.90766759,46.2859258 7.08968871,45.5684063 5.71051171,44.285752 L5.49644661,44.0785534 L2.49773662,41.0798387 C1.08410969,39.6764715 0.289074175,37.7669289 0.289074175,35.775 C0.289074175,33.8826676 1.00659372,32.0646887 2.29035407,30.6844097 L2.49773662,30.4701613 L8.64759955,24.2452974 C11.2888643,21.6211753 15.4487934,21.3142953 18.4465357,23.5224251 Z M29.175,35.5 C29.4204599,35.5 29.6246084,35.6768752 29.6669443,35.9101244 L29.675,36 L29.675,45.75 C29.675,46.0261424 29.4511424,46.25 29.175,46.25 C28.9295401,46.25 28.7253916,46.0731248 28.6830557,45.8398756 L28.675,45.75 L28.675,36 C28.675,35.7238576 28.8988576,35.5 29.175,35.5 Z M9.55533693,24.7611613 L9.35568961,24.9514042 L3.20568961,31.1764042 C1.97775042,32.3954645 1.28907418,34.0495499 1.28907418,35.775 C1.28907418,37.4045917 1.90335638,38.970528 3.00425228,40.1646429 L3.20355339,40.3714466 L6.20483871,43.3727366 C7.42046447,44.5972496 9.07454992,45.2859258 10.8,45.2859258 C12.4295917,45.2859258 13.995528,44.6716436 15.1896429,43.5707477 L15.3964466,43.3714466 L21.6202974,37.1475995 C23.7052244,35.0490524 24.1040228,31.8454574 22.6849014,29.3233204 L22.5465288,29.088921 L22.493,29.006 L20.274,30.221 L20.3917326,30.3970022 C21.2967148,31.8240495 21.2159092,33.6959223 20.1480568,35.0455064 L20.003174,35.2184976 L19.8535534,35.3785534 L13.6260638,41.6060255 C12.1111362,43.0998405 9.70789939,43.1496344 8.13150235,41.753174 L7.97144661,41.6035534 L4.96897446,38.6010638 C3.47515948,37.0861362 3.42536565,34.6828994 4.82182605,33.1065024 L4.97144661,32.9464466 L11.1989362,26.7189745 C12.5028187,25.4332634 14.4647489,25.2172639 15.9897354,26.0709761 L16.1780037,26.1832615 L16.344,26.294 L17.501,24.086 L17.4110796,24.0284706 C14.9332876,22.4955912 11.7183626,22.7845964 9.55533693,24.7611613 Z M35.383068,33.2951996 L35.4593055,33.3385912 L35.5285534,33.3964466 L42.4285534,40.2964466 C42.6238155,40.4917088 42.6238155,40.8082912 42.4285534,41.0035534 C42.254987,41.1771197 41.9855626,41.1964049 41.7906945,41.0614088 L41.7214466,41.0035534 L34.8214466,34.1035534 C34.6261845,33.9082912 34.6261845,33.5917088 34.8214466,33.3964466 C34.9733172,33.2445761 35.198579,33.210827 35.383068,33.2951996 Z M45.675,27.25 C45.9511424,27.25 46.175,27.4738576 46.175,27.75 C46.175,27.9954599 45.9981248,28.1996084 45.7648756,28.2419443 L45.675,28.25 L35.925,28.25 C35.6488576,28.25 35.425,28.0261424 35.425,27.75 C35.425,27.5045401 35.6018752,27.3003916 35.8351244,27.2580557 L35.925,27.25 L45.675,27.25 Z M35.925,0.214074175 C37.8173324,0.214074175 39.6353113,0.931593725 41.0144883,2.21424805 L41.2285534,2.42144661 L44.2272634,5.42016129 C45.6408903,6.82352848 46.4359258,8.73307114 46.4359258,10.725 C46.4359258,12.6173324 45.7184063,14.4353113 44.435752,15.8144883 L44.2285534,16.0285534 L38.0024005,22.2547026 C35.3611357,24.8788247 31.2012066,25.1857047 28.2034643,22.9775749 C28.0295631,22.8494797 27.960225,22.6271134 28.022338,22.4270384 L28.0570842,22.3429965 L29.7070842,19.1929965 C29.8629221,18.8954878 30.2619197,18.8331631 30.5010638,19.0689745 C31.6317599,20.1839127 33.4208905,20.2285102 34.6020587,19.2049542 L34.7464466,19.0714466 L40.9689745,12.8489362 C42.0839127,11.7182401 42.1285102,9.92910952 41.1049542,8.74794133 L40.9714466,8.60355339 L37.9739362,5.60602554 C36.8432401,4.49108735 35.0541095,4.44648982 33.8729413,5.47004576 L33.7285534,5.60355339 L27.5060255,11.8260638 C26.3446316,13.0038722 26.3446316,14.8961278 27.5060255,16.0739362 C27.7179376,16.2888433 27.6894508,16.633795 27.4637431,16.8145438 L27.3901573,16.8635481 L24.2401573,18.5885481 C24.0205733,18.7087965 23.7459025,18.6481077 23.5974251,18.4465357 C21.4444986,15.523737 21.6824032,11.4961344 24.1308694,8.84547507 L24.32357,8.6443359 L30.6201613,2.42273662 C32.0235285,1.00910969 33.9330711,0.214074175 35.925,0.214074175 Z M35.925,1.21407418 C34.2954083,1.21407418 32.729472,1.82835638 31.5335683,2.93103038 L31.32643,3.1306641 L25.0297026,9.35240045 C22.9447756,11.4509476 22.5459772,14.6545426 23.9650986,17.1766796 L24.1034712,17.411079 L24.156,17.493 L26.375,16.278 L26.2582674,16.1029978 C25.3532852,14.6759505 25.4340908,12.8040777 26.5019432,11.4544936 L26.646826,11.2815024 L26.7964466,11.1214466 L33.0239362,4.89397446 C34.5388638,3.40015948 36.9421006,3.35036565 38.5184976,4.74682605 L38.6785534,4.89644661 L41.6810255,7.89893617 C43.1748405,9.41386378 43.2246344,11.8171006 41.828174,13.3934976 L41.6785534,13.5535534 L35.4510638,19.7810255 C34.1471813,21.0667366 32.1852511,21.2827361 30.6602646,20.4290239 L30.4719963,20.3167385 L30.305,20.205 L29.148,22.413 L29.2389208,22.471529 C31.6414939,23.9578649 34.7372148,23.7311662 36.8965933,21.9123863 L37.1025877,21.7314093 L37.2964466,21.5464466 L43.5227366,15.3201613 C44.7472496,14.1045355 45.4359258,12.4504501 45.4359258,10.725 C45.4359258,9.09540826 44.8216436,7.529472 43.7207477,6.33535709 L43.5214466,6.12855339 L40.5201613,3.12726338 C39.3045355,1.90275042 37.6504501,1.21407418 35.925,1.21407418 Z M10.425,18.25 C10.7011424,18.25 10.925,18.4738576 10.925,18.75 C10.925,18.9954599 10.7481248,19.1996084 10.5148756,19.2419443 L10.425,19.25 L0.675,19.25 C0.398857625,19.25 0.175,19.0261424 0.175,18.75 C0.175,18.5045401 0.351875161,18.3003916 0.585124368,18.2580557 L0.675,18.25 L10.425,18.25 Z M4.5593055,5.43859116 L4.62855339,5.49644661 L11.5285534,12.3964466 C11.7238155,12.5917088 11.7238155,12.9082912 11.5285534,13.1035534 C11.354987,13.2771197 11.0855626,13.2964049 10.8906945,13.1614088 L10.8214466,13.1035534 L3.92144661,6.20355339 C3.72618446,6.00829124 3.72618446,5.69170876 3.92144661,5.49644661 C4.09501296,5.32288026 4.36443736,5.30359511 4.5593055,5.43859116 Z M17.175,0.25 C17.4204599,0.25 17.6246084,0.426875161 17.6669443,0.660124368 L17.675,0.75 L17.675,10.5 C17.675,10.7761424 17.4511424,11 17.175,11 C16.9295401,11 16.7253916,10.8231248 16.6830557,10.5898756 L16.675,10.5 L16.675,0.75 C16.675,0.473857625 16.8988576,0.25 17.175,0.25 Z" id="Combined-Shape"></path>
            </g>
        </g>
    </g>
</svg>