<?xml version="1.0" encoding="UTF-8"?>
<svg width="24px" height="24px" viewBox="0 0 24 24" version="1.1" xmlns="http://www.w3.org/2000/svg" xmlns:xlink="http://www.w3.org/1999/xlink">
    <title>clock_24x24_icn</title>
    <g id="clock_24x24_icn" stroke="none" stroke-width="1" fill="none" fill-rule="evenodd">
        <g>
            <rect id="Rectangle" x="0" y="0" width="24" height="24"></rect>
            <path d="M12,1 C18.0751322,1 23,5.92486775 23,12 C23,18.0751322 18.0751322,23 12,23 C5.92486775,23 1,18.0751322 1,12 C1,5.92486775 5.92486775,1 12,1 Z M12,1.97683398 C6.46435826,1.97683398 1.97683398,6.46435826 1.97683398,12 C1.97683398,17.5356417 6.46435826,22.023166 12,22.023166 C17.5356417,22.023166 22.023166,17.5356417 22.023166,12 C22.023166,6.46435826 17.5356417,1.97683398 12,1.97683398 Z M12,3.8030888 C12.2397736,3.8030888 12.4391927,3.97586647 12.4805479,4.20371222 L12.488417,4.29150579 L12.4875676,12.0587375 L16.7865777,14.3730518 C16.9976914,14.4867284 17.0913604,14.7333987 17.0197508,14.9536168 L16.9850563,15.0346472 C16.8713797,15.2457609 16.6247094,15.3394299 16.4044913,15.2678203 L16.3234609,15.2331258 L11.7684416,12.7804231 C11.6366057,12.7094346 11.5461223,12.5829013 11.5196232,12.4387139 L11.511583,12.3503861 L11.511583,4.29150579 C11.511583,4.02176054 11.7302547,3.8030888 12,3.8030888 Z" id="Combined-Shape" fill="#E31C3D" fill-rule="nonzero"></path>
        </g>
    </g>
</svg>