<svg xmlns="http://www.w3.org/2000/svg" width="40" height="32" viewBox="0 0 40 32">
    <path fill="#263238" d="M19.556 0c-2.957 0-5.926 1.12-8.181 3.375-1.827 1.827-2.89 4.124-3.236 6.5C3.55 10.462 0 14.367 0 19.111c0 5.15 4.184 9.333 9.333 9.333h4.89c.16.003.309-.081.39-.22.08-.138.08-.31 0-.448-.081-.138-.23-.223-.39-.22h-4.89C4.664 27.556.89 23.78.89 19.11c0-4.408 3.364-8.026 7.667-8.417.209-.018.377-.18.402-.388C9.226 8 10.245 5.769 12.014 4c2.084-2.084 4.81-3.111 7.542-3.111 2.73 0 5.442 1.026 7.527 3.111 2.41 2.41 3.432 5.695 3.056 8.833-.016.127.024.255.109.351.085.096.207.15.335.15h.528c3.947 0 7.111 3.163 7.111 7.11 0 3.948-3.164 7.112-7.11 7.112h-6.223c-.16-.003-.31.082-.39.22-.081.138-.081.31 0 .448.08.139.23.223.39.22h6.222c4.424 0 8-3.575 8-8 0-4.424-3.576-8-8-8h-.083c.25-3.249-.823-6.586-3.306-9.069C25.468 1.121 22.512 0 19.556 0zm-.042 16c-.105.009-.196.057-.264.111l-4.889 4.445c-.173.16-.189.467-.028.638.161.172.469.176.64.014l4.138-3.764v14.112c0 .245.2.444.445.444s.444-.199.444-.444V17.444l4.139 3.764c.17.162.478.158.639-.013.16-.172.155-.455-.028-.64l-4.889-4.444c-.123-.09-.242-.12-.347-.11V16z"/>
</svg>
