<?xml version="1.0" encoding="UTF-8"?>
<svg width="24px" height="24px" viewBox="0 0 24 24" version="1.1" xmlns="http://www.w3.org/2000/svg" xmlns:xlink="http://www.w3.org/1999/xlink">
    <title>dollar_sign_24x24_icn</title>
    <g id="dollar_sign_24x24_icn" stroke="none" stroke-width="1" fill="none" fill-rule="evenodd">
        <g>
            <g id="dollar-sign-2238_da6e187f-28a5-4a3d-83fd-e82529e21516" fill="#263238" fill-rule="nonzero">
                <g id="$" transform="translate(8.500000, 4.000000)">
                    <path d="M3.70454545,-1.15463195e-13 C3.95000534,-1.15463195e-13 4.15415382,0.176875161 4.19648979,0.410124368 L4.20454545,0.5 L4.20487434,2.07185636 C5.59586264,2.35693062 6.70672708,3.47038963 6.9513746,4.917 C6.99742134,5.18927617 6.81402616,5.44732787 6.54175,5.4933746 C6.26947383,5.53942134 6.01142213,5.35602616 5.9653754,5.08375 C5.76194647,3.88086683 4.7200265,3.00047154 3.5,3.000625 C2.05261916,3.000625 1,3.93191394 1,5.2505 C1,6.35176729 1.84977562,7.06287951 3.38568984,7.45855745 L3.6097561,7.51294512 C5.68278652,7.97937697 7,9.00581557 7,10.751 C7,12.4172986 5.82564223,13.6610513 4.20472667,13.9413061 L4.20454545,15.501125 C4.20454545,15.7772674 3.98068783,16.001125 3.70454545,16.001125 C3.45908557,16.001125 3.25493708,15.8242498 3.21260112,15.5910006 L3.20454545,15.501125 L3.20443319,13.9885712 C1.40976073,13.8385057 0,12.334324 0,10.500875 C0,10.2247326 0.223857625,10.000875 0.5,10.000875 C0.776142375,10.000875 1,10.2247326 1,10.500875 C1,11.8815869 2.11928813,13.000875 3.5,13.000875 C4.94705904,13.000875 6,12.0691195 6,10.751 C6,9.64843741 5.14484493,8.93194134 3.61216482,8.54171967 L3.38862069,8.48818682 C1.30928969,8.01305968 0,6.99454141 0,5.2505 C0,3.44665448 1.37523444,2.13865385 3.20381313,2.01089175 L3.20454545,0.5 C3.20454545,0.223857625 3.42840308,-1.15463195e-13 3.70454545,-1.15463195e-13 Z" id="Combined-Shape"></path>
                </g>
                <path d="M12,0.5 C5.64872538,0.5 0.5,5.64872538 0.5,12 C0.5,18.3512746 5.64872538,23.5 12,23.5 C18.3512746,23.5 23.5,18.3512746 23.5,12 C23.5,5.64872538 18.3512746,0.5 12,0.5 Z M12,1.4787234 C17.8107406,1.4787234 22.5212766,6.18925939 22.5212766,12 C22.5212766,17.8107406 17.8107406,22.5212766 12,22.5212766 C6.18925939,22.5212766 1.4787234,17.8107406 1.4787234,12 C1.4787234,6.18925939 6.18925939,1.4787234 12,1.4787234 Z" id="Oval"></path>
            </g>
            <rect id="Rectangle" x="0" y="0" width="24" height="24"></rect>
        </g>
    </g>
</svg>