<?xml version="1.0" encoding="UTF-8"?>
<svg width="48px" height="48px" viewBox="0 0 48 48" version="1.1" xmlns="http://www.w3.org/2000/svg" xmlns:xlink="http://www.w3.org/1999/xlink">
    <title>earnings_48x48_1px_icn</title>
    <g id="earnings_48x48_1px_icn" stroke="none" stroke-width="1" fill="none" fill-rule="evenodd">
        <g>
            <g id="earnings_icn" transform="translate(0.000000, 3.000000)" fill="#263238" fill-rule="nonzero">
                <path d="M21.8785075,0.5 C25.5725988,0.5 28.5644776,3.53280478 28.5644776,7.27058824 C28.5644776,8.73786706 28.1034351,10.0965101 27.3198557,11.2057032 C28.9362936,11.5000328 30.4808957,12.0440809 32.0150242,12.8471779 C37.2246535,15.6501487 39.2610392,19.9035648 39.3861419,25.4868434 L40.0434638,25.4134858 L40.4015342,25.3755967 L41.0668613,25.3127738 C41.2791332,25.2946743 41.4830935,25.2793911 41.6823185,25.2668492 L42.2693641,25.2373723 L42.39,25.233 L42.4726486,25.1156819 C43.1760016,24.1537706 44.3889716,23.2887591 46.129171,22.5727277 L46.4417415,22.4479264 C46.6992311,22.3481581 46.9888459,22.4760164 47.0886142,22.733506 C47.1883825,22.9909956 47.0605242,23.2806104 46.8030346,23.3803787 C45.4280622,23.913133 44.4263571,24.5153548 43.7614914,25.1547868 L43.673,25.243 L43.7982379,25.2508126 C45.8233035,25.3825561 47.0307195,26.0221017 47.1173798,27.4429615 L47.1223881,27.6103898 C47.1223881,30.3354508 45.6372044,31.0211485 43.4884724,30.1050439 C42.4296396,29.6536141 41.6125032,28.2928195 41.7568666,26.9031601 C41.7762604,26.7164736 41.8112019,26.5318507 41.861788,26.3495776 L41.89,26.256 L41.741878,26.2650968 C41.5497788,26.2772223 41.352562,26.2920317 41.1468089,26.3096045 L40.5005221,26.370693 L39.3862169,26.4936342 C39.2415904,31.8023614 36.5264662,37.4276157 30.8583421,42.0847312 C30.7912518,42.1398548 30.7113737,42.1762355 30.6267851,42.1909807 L30.5409254,42.1984068 L24.8959701,42.1984068 C24.6505103,42.1984068 24.4463618,42.0215316 24.4040258,41.7882824 L24.3959701,41.6984068 L24.395,39.097 L18.318,39.442 L18.228395,39.6132167 C17.8414971,40.3186089 17.4031703,40.9938555 16.9170555,41.6333395 L16.6196811,42.0126934 C16.5437396,42.1066579 16.437077,42.1691358 16.3201275,42.1903683 L16.230806,42.1984068 L11.0499701,42.1984068 C10.8045103,42.1984068 10.6003618,42.0215316 10.5580258,41.7882824 L10.5499701,41.6984068 L10.549,37.256 L10.1378148,36.9567561 C8.90295823,36.0387117 7.7247694,35.0450679 6.60985282,33.9813981 L6.222,33.604 L6.0824547,33.6097932 C3.45005938,33.6565861 1.37659047,31.2480725 0.553882131,26.6137384 L0.497253731,26.2789322 C0.497253731,25.3196147 1.01432123,24.7615763 1.72722172,24.7634978 C2.37815389,24.706265 3.00945485,24.5135706 3.58200819,24.1985451 L3.717,24.119 L4.14784652,23.0341069 L4.39278218,22.4339149 L4.75962478,21.5573122 L5.04769969,20.8916737 L5.23851866,20.4650481 L5.42375195,20.0652153 L5.59945596,19.7033922 L5.67345641,19.5577163 C5.89854086,19.1218893 6.12997837,18.7098201 6.36929144,18.3221893 L6.466,18.169 L6.43565918,18.0949659 C5.85607386,16.7782309 4.9608509,15.6289925 3.83162125,14.7517621 L3.56691298,14.5542004 C3.26180784,14.3355342 3.29748073,13.8711716 3.63240514,13.7016732 C6.32427595,12.3393723 8.5993015,11.8582948 12.2937686,12.1990345 L12.648,12.233 L12.9490445,12.1653678 L13.446578,12.0353451 L14.7663191,11.665275 C15.3581965,11.5065045 15.9041821,11.380288 16.4854679,11.2744937 C15.6732204,10.1537367 15.1925373,8.76879435 15.1925373,7.27058824 C15.1925373,3.53280478 18.1844161,0.5 21.8785075,0.5 Z M17.1743987,12.0819014 L17.149964,12.105648 C17.0841298,12.1607448 17.0032236,12.1996016 16.9124558,12.2148966 C16.4267875,12.2967346 15.9742013,12.3917551 15.5037295,12.5077936 L14.8931758,12.666921 L13.7082209,13.0005201 L13.3449781,13.0972526 L13.0234066,13.1752294 L12.7729616,13.2292518 L12.620946,13.2364125 C9.29828578,12.8838673 7.2297963,13.1767681 4.97774844,14.169583 L4.797,14.251 L4.95671442,14.3888773 C5.98293072,15.3074503 6.80367613,16.4407583 7.36014553,17.7131305 L7.4937231,18.0340769 C7.55366322,18.1856816 7.53593008,18.3569886 7.44620645,18.4931006 C7.14052475,18.9568242 6.84661692,19.4654099 6.56195948,20.016587 L6.41667349,20.3082856 L6.17585299,20.8243644 L5.73975682,21.8177136 L5.21992783,23.0535243 L4.58304774,24.5793067 L4.51851764,24.7220838 L4.4823045,24.7893991 L4.35680026,24.9021206 C3.58819326,25.3864512 2.71719961,25.6803126 1.77101493,25.7615763 C1.58436,25.7615763 1.49725373,25.8555846 1.4908036,26.1988789 C2.22637994,30.7339031 4.10666542,32.8276534 6.35805981,32.5918224 C6.50748686,32.5761701 6.65603165,32.6285419 6.76260071,32.7344498 C8.18213765,34.1451792 9.71302132,35.4362747 11.3400055,36.5948864 C11.4453964,36.6699376 11.5165392,36.7820618 11.5407807,36.9067144 L11.5499701,37.0021695 L11.549,41.198 L15.986,41.198 L16.1664516,40.9680154 C16.5894202,40.4058384 16.9732536,39.8145355 17.315166,39.1983916 L17.5636967,38.7316929 C17.631034,38.5998016 17.752491,38.5059525 17.8937785,38.4725004 L17.9806564,38.4598557 L24.8676116,38.0686184 C25.1257558,38.0539536 25.3472109,38.2373292 25.3889204,38.4835849 L25.3959701,38.5678136 L25.395,41.198 L30.36,41.198 L30.5920429,41.0042447 C35.810352,36.5725586 38.2789949,31.3178832 38.3885105,26.3887883 L38.3922537,26.07 L38.3916381,26.0073043 C38.3917404,26.0059457 38.3918482,26.0045885 38.3919616,26.0032325 L38.3923284,26.0454407 C38.3923284,20.520784 36.5529591,16.4243067 31.5462349,13.7304696 C29.9234851,12.8810132 28.2927145,12.3413067 26.5672128,12.0951485 C25.3612354,13.2991231 23.7057786,14.0411765 21.8785075,14.0411765 C20.043727,14.0411765 18.382176,13.2930115 17.1743987,12.0819014 Z M42.97,26.225 L42.94489,26.2813882 C42.8615182,26.4732239 42.8039444,26.6665926 42.7713187,26.8607417 L42.751514,27.0064882 C42.6528402,27.956333 43.2221407,28.9044012 43.880662,29.1851595 C45.4329307,29.846964 46.1223881,29.5286469 46.1223881,27.6103898 C46.1223881,26.7318768 45.1527249,26.2837035 43.3118132,26.2302288 L42.97,26.225 Z M11.0527164,21.631678 C11.7571778,21.631678 12.325791,22.207205 12.325791,22.9141525 C12.325791,23.6211 11.7571778,24.1966271 11.0527164,24.1966271 C10.348255,24.1966271 9.77964179,23.6211 9.77964179,22.9141525 C9.77964179,22.207205 10.348255,21.631678 11.0527164,21.631678 Z M26.9131274,15.4764791 C27.1741028,15.5667367 27.3124969,15.8514674 27.2222393,16.1124428 C27.1319817,16.3734182 26.8472511,16.5118124 26.5862756,16.4215548 C23.5112748,15.3580744 20.178859,15.3314211 17.0876561,16.3455769 C16.8252737,16.4316588 16.5427876,16.288739 16.4567057,16.0263566 C16.3706238,15.7639742 16.5135436,15.4814881 16.775926,15.3954062 C20.0748318,14.3131077 23.6315502,14.341555 26.9131274,15.4764791 Z M21.8785075,1.5 C18.7397649,1.5 16.1925373,4.08207118 16.1925373,7.27058824 C16.1925373,10.4591053 18.7397649,13.0411765 21.8785075,13.0411765 C23.4877596,13.0411765 24.9415217,12.362434 25.9762151,11.2712115 C25.9972216,11.2407529 26.0224368,11.2133152 26.0503042,11.1889811 C26.9901972,10.1618003 27.5644776,8.78455683 27.5644776,7.27058824 C27.5644776,4.08207118 25.01725,1.5 21.8785075,1.5 Z" id="Combined-Shape"></path>
            </g>
            <rect id="Bounding-box" x="0" y="0" width="48" height="48"></rect>
        </g>
    </g>
</svg>