<?xml version="1.0" encoding="UTF-8"?>
<svg width="29px" height="26px" viewBox="0 0 29 26" version="1.1" xmlns="http://www.w3.org/2000/svg" xmlns:xlink="http://www.w3.org/1999/xlink">
    <title>Orion_money-box</title>
    <g id="Page-1" stroke="none" stroke-width="1" fill="none" fill-rule="evenodd" stroke-linecap="round" stroke-linejoin="round">
        <g id="Report-Detail-Writer" transform="translate(-1088.000000, -369.000000)" stroke="#263238" stroke-width="0.5">
            <g id="Orion_money-box" transform="translate(1089.000000, 370.000000)">
                <path d="M12.0355932,6.23076923 C10.9014991,6.37265103 9.80138178,6.71644596 8.78644068,7.24615385 C5.17118644,9.18461538 4.57627119,12.3230769 4.57627119,14.7692308 C4.57627119,17.2153846 5.62881356,20.8153846 9.51864407,24 L12.859322,24 L12.859322,22.1538462 L16.9322034,22.3846154 C17.2263198,22.9585725 17.5790817,23.4999722 17.9847458,24 L21.0508475,24 L21.0508475,21.2307692 C22.0268608,20.5382017 22.9451668,19.766406 23.7966102,18.9230769 C25.1237288,19.0615385 26.4966102,18 27,14.9076923 C27,14.4461538 26.7711864,14.3076923 26.5423729,14.3076923 C26.0551423,14.264792 25.584798,14.1066706 25.1694915,13.8461538 C24.9864407,13.6153846 24.4372881,11.6769231 23.4305085,10.1538462 C23.813727,9.18831312 24.4652494,8.35492943 25.3067797,7.75384615 C24.0254237,7.10769231 22.6983051,6.64615385 20.0898305,6.92307692 C19.4033898,6.78461538 18.259322,6.50769231 17.1610169,6.32307692" id="Path"></path>
                <ellipse id="Oval" cx="14.6440678" cy="3.69230769" rx="3.66101695" ry="3.69230769"></ellipse>
                <path d="M4.57627119,14.7692308 C3.24915254,14.6307692 0,14.1230769 0,15.6923077 C0,17.2615385 0.869491525,17.2615385 1.73898305,16.8923077 C2.60847458,16.5230769 3.70677966,14.3538462 0,12.9230769 M11.7610169,8.81538462 C13.6424437,8.16690213 15.6815628,8.15070884 17.5728814,8.76923077" id="Shape"></path>
                <ellipse id="Oval" cx="21.0508475" cy="12.9230769" rx="1" ry="1"></ellipse>
            </g>
        </g>
    </g>
</svg>