<?xml version="1.0" encoding="UTF-8"?>
<svg width="58px" height="72px" viewBox="0 0 58 72" version="1.1" xmlns="http://www.w3.org/2000/svg" xmlns:xlink="http://www.w3.org/1999/xlink">
    <title>icon-document</title>
    <g id="Symbols" stroke="none" stroke-width="1" fill="none" fill-rule="evenodd">
        <path d="M46.4570312,71.8476562 C49.9726562,71.8476562 52.6152344,70.9511719 54.3847656,69.1582031 C56.1542969,67.3652344 57.0390625,64.6992188 57.0390625,61.1601562 L57.0390625,31.2070312 L32.5351562,31.2070312 C28.3867188,31.2070312 26.3125,29.1328125 26.3125,24.984375 L26.3125,0.12890625 L11.0546875,0.12890625 C7.5625,0.12890625 4.92578125,1.03125 3.14453125,2.8359375 C1.36328125,4.640625 0.47265625,7.3125 0.47265625,10.8515625 L0.47265625,61.1601562 C0.47265625,64.6992188 1.36328125,67.3652344 3.14453125,69.1582031 C4.92578125,70.9511719 7.5625,71.8476562 11.0546875,71.8476562 L46.4570312,71.8476562 Z M56.6875,26.4960938 C56.59375,25.7460938 56.2949219,25.0078125 55.7910156,24.28125 C55.2871094,23.5546875 54.625,22.78125 53.8046875,21.9609375 L35.5234375,3.3984375 C34.7265625,2.578125 33.9589844,1.91601562 33.2207031,1.41210938 C32.4824219,0.908203125 31.75,0.59765625 31.0234375,0.48046875 L31.0234375,24.5976562 C31.0234375,25.8632812 31.65625,26.4960938 32.921875,26.4960938 L56.6875,26.4960938 Z M41.8164062,45.796875 L15.8007812,45.796875 C15.1210938,45.796875 14.5585938,45.5800781 14.1132812,45.1464844 C13.6679688,44.7128906 13.4453125,44.1796875 13.4453125,43.546875 C13.4453125,42.890625 13.6679688,42.3457031 14.1132812,41.9121094 C14.5585938,41.4785156 15.1210938,41.2617188 15.8007812,41.2617188 L41.8164062,41.2617188 C42.4960938,41.2617188 43.0585938,41.4785156 43.5039062,41.9121094 C43.9492188,42.3457031 44.171875,42.890625 44.171875,43.546875 C44.171875,44.1796875 43.9492188,44.7128906 43.5039062,45.1464844 C43.0585938,45.5800781 42.4960938,45.796875 41.8164062,45.796875 Z M41.8164062,58.3125 L15.8007812,58.3125 C15.1210938,58.3125 14.5585938,58.1015625 14.1132812,57.6796875 C13.6679688,57.2578125 13.4453125,56.71875 13.4453125,56.0625 C13.4453125,55.4296875 13.6679688,54.890625 14.1132812,54.4453125 C14.5585938,54 15.1210938,53.7773438 15.8007812,53.7773438 L41.8164062,53.7773438 C42.4960938,53.7773438 43.0585938,54 43.5039062,54.4453125 C43.9492188,54.890625 44.171875,55.4296875 44.171875,56.0625 C44.171875,56.71875 43.9492188,57.2578125 43.5039062,57.6796875 C43.0585938,58.1015625 42.4960938,58.3125 41.8164062,58.3125 Z" id="icon-document" fill="#263238" fill-rule="nonzero"></path>
    </g>
</svg>