<svg xmlns="http://www.w3.org/2000/svg" width="40" height="40" viewBox="0 0 40 40">
  <g fill="#4B5A6E">
      <path d="M19.928 36.57h-.001c-1.528 0-3.043-.21-4.502-.624-1.415-.4-2.774-.99-4.038-1.755-.125-.076-.2-.208-.2-.355 0-.075.02-.15.06-.216.075-.125.21-.2.355-.2.076 0 .15.02.216.06 2.445 1.477 5.25 2.258 8.11 2.258 4.216 0 8.185-1.646 11.175-4.635 2.989-2.99 4.635-6.96 4.635-11.175 0-5.324-2.678-10.257-7.163-13.195-.092-.06-.156-.154-.178-.263-.023-.109-.002-.22.059-.312.077-.118.207-.188.348-.188.08 0 .159.023.227.067 1.13.74 2.17 1.618 3.092 2.608.923.993 1.722 2.096 2.378 3.277.666 1.202 1.18 2.483 1.528 3.807.358 1.365.54 2.777.54 4.199 0 1.127-.114 2.254-.339 3.35-.219 1.068-.545 2.118-.97 3.122-.418.986-.935 1.937-1.537 2.827-.595.881-1.28 1.71-2.033 2.463-.753.753-1.582 1.438-2.463 2.033-.89.602-1.84 1.12-2.827 1.536-1.004.426-2.054.752-3.122.971-1.096.225-2.223.34-3.35.34zM9.576 32.803c-.097 0-.192-.034-.267-.096v-.001c-.175-.147-.198-.409-.052-.585.08-.094.196-.149.32-.149.096 0 .191.035.266.097.085.071.137.172.147.282.01.11-.024.219-.095.303-.08.095-.196.15-.319.15zm-1.783-1.738c-.12 0-.233-.051-.312-.141-1.312-1.488-2.336-3.177-3.047-5.02-.736-1.907-1.11-3.919-1.11-5.977 0-1.124.114-2.247.34-3.339.218-1.064.545-2.11.97-3.112.417-.984.933-1.932 1.534-2.82.595-.879 1.278-1.707 2.03-2.459.752-.752 1.58-1.435 2.46-2.03.887-.601 1.835-1.117 2.819-1.535 1.001-.424 2.048-.75 3.112-.97 1.092-.225 2.215-.339 3.339-.339 1.515 0 3.018.205 4.467.609.178.05.303.213.303.398.001.038-.005.076-.015.114-.05.179-.214.304-.4.304-.038 0-.075-.005-.112-.016-1.376-.383-2.804-.577-4.243-.577-4.2 0-8.155 1.644-11.142 4.63-2.986 2.987-4.63 6.943-4.63 11.142 0 3.846 1.403 7.556 3.948 10.448.151.172.135.435-.037.586-.076.067-.173.104-.274.104zm18.83-25.465c-.06 0-.118-.013-.172-.038-.209-.094-.302-.341-.207-.55.068-.148.216-.244.38-.244.058 0 .116.012.171.037.208.095.301.342.206.55-.067.148-.216.245-.379.245z"/>
      <path d="M19.924 39.894c-.243 0-.49-.005-.734-.014h-.001c-.225-.008-.4-.19-.4-.414v-.016c.008-.23.2-.41.43-.4.237.008.474.013.705.013 5.104 0 9.909-1.994 13.528-5.611 3.617-3.62 5.61-8.424 5.61-13.528 0-3.315-.87-6.584-2.519-9.454-.054-.096-.07-.207-.04-.315.029-.107.098-.197.194-.252.063-.036.135-.055.207-.055.148 0 .287.08.36.209.847 1.472 1.5 3.048 1.942 4.681.456 1.684.688 3.429.688 5.186 0 1.353-.138 2.706-.407 4.02-.262 1.281-.655 2.542-1.165 3.747-.501 1.183-1.121 2.324-1.843 3.392-.715 1.057-1.536 2.052-2.44 2.956-.904.904-1.899 1.725-2.956 2.44-1.068.722-2.21 1.342-3.392 1.843-1.205.51-2.466.903-3.747 1.165-1.314.27-2.667.407-4.02.407zm-3.198-.264c-.022 0-.045-.002-.067-.005-.11-.018-.206-.078-.271-.169-.065-.09-.09-.2-.072-.31.034-.2.206-.347.41-.347.022 0 .045.002.068.006.226.037.38.252.342.478-.033.202-.206.347-.41.347zm-2.426-.566c-.04 0-.08-.006-.12-.018-2.023-.613-3.93-1.544-5.67-2.766-1.715-1.207-3.226-2.669-4.49-4.345-1.278-1.696-2.273-3.57-2.955-5.57C.358 24.295 0 22.128 0 19.923c0-1.459.16-2.917.476-4.331.308-1.377.766-2.725 1.36-4.007.584-1.258 1.304-2.462 2.14-3.576.829-1.107 1.775-2.13 2.814-3.043h.001c.076-.067.173-.104.273-.104.12 0 .234.052.313.141.151.172.134.436-.038.587C3.203 9.228.83 14.452.83 19.924c0 8.367 5.588 15.904 13.59 18.326.106.033.193.104.246.203.052.098.063.21.031.316-.053.174-.216.295-.398.295zM35.53 8.602c-.132 0-.252-.06-.332-.165-.138-.182-.102-.443.08-.582.073-.055.16-.085.25-.085.132 0 .253.06.332.166.14.182.103.443-.08.581-.073.056-.159.085-.25.085zM33.9 6.715c-.113 0-.218-.044-.296-.124C29.965 2.876 25.107.83 19.924.83c-1.504 0-3 .177-4.451.526-.032.008-.065.012-.097.012-.193 0-.36-.131-.404-.318-.026-.109-.009-.22.05-.315.057-.094.148-.16.256-.187C16.793.185 18.355 0 19.924 0c1.372 0 2.744.14 4.077.418 1.3.27 2.576.673 3.795 1.198 1.198.515 2.35 1.15 3.427 1.892 1.068.733 2.068 1.575 2.975 2.501.076.078.119.181.119.29 0 .113-.044.219-.126.298-.078.076-.18.118-.29.118z"/>
      <path d="M18.021 36.453c-.016 0-.031-.002-.047-.004-1.287-.147-2.555-.448-3.77-.894-1.186-.435-2.326-1.011-3.387-1.71-1.048-.69-2.021-1.502-2.891-2.413-.872-.912-1.641-1.922-2.286-3.004-.067-.112-.077-.25-.027-.371.05-.12.155-.212.281-.244.437-.111.829-.165 1.2-.165h.01c.826 0 1.454.293 1.978.567.079.04.158.082.235.123.491.26.999.53 1.694.722l.005.002c.564.165 1.006.366 1.354.614.313.223.552.494.711.804.194.386.25.762.297 1.063.022.152.042.282.074.396.065.232.135.378.34.533l.006.005c.096.077.289.123.516.123h.024c.575 0 1.38-.261 1.914-.433l.093-.03.175-.054c.259-.08.692-.214 1.155-.334.53-.137 1.21-.294 1.775-.295.203 0 .358.019.503.061.202.06.357.167.46.316.077.113.12.26.119.403-.013.367-.191.66-.516 1.07l-.002.001c-.416.504-.767.874-1.023 1.143l-.08.086c-.295.308-.44.485-.5.612-.045.098-.062.172-.062.292-.001.123.025.292.075.501.033.132-.002.271-.092.373-.079.09-.192.14-.31.14zM6.668 28.507c2.47 3.81 6.424 6.377 10.853 7.045-.003-.04-.004-.077-.004-.114-.001-.233.05-.46.15-.658.102-.209.245-.383.385-.541.101-.115.213-.233.342-.37.26-.273.583-.613.978-1.091.217-.262.29-.424.31-.474-.04-.008-.122-.02-.232-.02h-.01c-.338 0-.906.099-1.555.27-.447.116-.855.241-1.124.325-.07.02-.13.04-.178.054l-.227.072c-.523.168-1.314.422-2.033.426-.437-.002-.762-.094-1.026-.291-.352-.254-.58-.63-.679-1.118-.027-.135-.048-.263-.068-.387-.034-.215-.067-.418-.13-.595-.076-.21-.174-.365-.33-.519-.27-.263-.709-.486-1.306-.661-.782-.217-1.348-.518-1.848-.783l-.237-.125c-.515-.267-.96-.47-1.605-.473-.135 0-.279.01-.426.028zM11.971 23.76h-.005c-.232 0-.478-.067-.711-.195-.232-.127-.469-.316-.724-.578-.32-.31-.558-.675-.708-1.084-.128-.35-.192-.734-.19-1.138.001-.55.105-1.06.212-1.535l.006-.025c.1-.44.189-.817.186-1.024 0-.058-.007-.095-.01-.11-.06-.26-.19-.471-.406-.66-.2-.174-.481-.323-.814-.433-.106-.035-.192-.109-.242-.208-.05-.099-.058-.212-.023-.317.057-.17.215-.285.395-.285.044 0 .088.007.13.021.448.148.807.342 1.097.592.347.297.58.682.675 1.11v.003c.019.088.028.182.028.287-.003.32-.08.652-.16 1.003l-.051.228c-.1.44-.192.908-.191 1.353.005.69.205 1.19.647 1.628l.008.007c.194.2.379.351.534.435.151.082.245.094.317.095.142.004.319-.07.606-.244l.103-.06c.246-.15.553-.334.941-.45.456-.138.901-.205 1.36-.205h.005c.294.001.553.026.78.047.196.018.361.033.517.033.304-.003.545-.044.878-.245.367-.224.793-.651 1.265-1.27.223-.3.407-.52.582-.695.14-.14.283-.257.44-.359.057-.038.109-.07.158-.1.17-.103.305-.186.572-.448.174-.184.26-.456.262-.832.003-.57-.215-1.387-.648-2.429-.157-.383-.32-.745-.479-1.095-.197-.438-.368-.817-.478-1.127l-.001-.003-.05-.147c-.355-1.036-.551-1.607-.558-2.138-.001-.234.051-.464.152-.664.104-.21.247-.386.387-.544.099-.11.205-.224.329-.355.26-.276.584-.619.978-1.103.216-.261.29-.424.31-.474-.04-.008-.123-.02-.232-.02h-.01c-.339 0-.906.099-1.555.27-.444.115-.85.24-1.12.323-.07.022-.13.041-.18.055l-.415.128c-.624.194-1.214.378-1.762.383-.211 0-.395-.03-.56-.092-.192-.07-.36-.189-.49-.343-.25-.302-.367-.72-.369-1.317 0-.158.01-.333.027-.517l.002-.018c.076-.558.114-1.044.114-1.446 0-.23-.012-.44-.036-.622v-.001c-.015-.11.014-.219.081-.306.067-.09.165-.146.275-.16.225-.03.437.133.467.357.03.222.044.461.044.732 0 .443-.04.948-.12 1.547-.015.157-.023.303-.023.434 0 .4.071.602.113.687.064.12.113.156.205.194.069.026.161.04.268.04h.002c.394.007 1.017-.19 1.744-.415l.193-.06c.046-.013.106-.033.176-.054.259-.08.691-.214 1.155-.334.529-.137 1.21-.293 1.774-.295.203 0 .359.02.503.061.203.06.358.167.46.317.077.112.12.26.12.402-.013.367-.192.66-.517 1.069-.413.508-.75.864-1.02 1.15-.024.027-.048.053-.072.077-.25.263-.431.47-.5.618-.05.1-.066.175-.067.296-.006.282.14.809.562 2.014h.001c.088.253.25.612.438 1.029.156.349.334.743.503 1.15.348.853.706 1.847.71 2.746.001.593-.167 1.07-.5 1.414l-.005.005c-.289.291-.52.446-.708.56l-.046.028c-.148.09-.245.15-.417.32-.143.143-.307.34-.501.603l-.004.004c-.55.72-1.025 1.19-1.494 1.478-.397.248-.82.369-1.291.369h-.022c-.222-.002-.433-.022-.637-.041-.207-.02-.423-.04-.647-.04h-.013c-.385 0-.742.055-1.126.17-.286.084-.533.233-.795.39l-.063.04-.008.004c-.281.164-.6.351-1.023.355zM6.46 16.719c-.229-.006-.411-.197-.405-.426.006-.227.198-.414.425-.405.112.002.215.048.291.129.077.08.117.186.115.296-.006.23-.196.41-.425.405zM33.687 19.179h-.004c-.236 0-.487-.068-.726-.197-.24-.128-.486-.322-.755-.59-.32-.31-.556-.673-.706-1.082-.128-.35-.191-.733-.189-1.136 0-.55.105-1.06.211-1.536l.006-.022c.102-.44.189-.82.186-1.026 0-.046-.004-.078-.007-.097-.116-.359-.3-.612-.596-.82-.267-.184-.638-.32-1.101-.408-.552-.106-1.185-.132-1.855-.16-.398-.017-.81-.035-1.206-.07-.623-.059-1.34-.165-1.941-.514-.348-.203-.62-.474-.808-.805l-.002-.004c-.148-.266-.226-.568-.225-.876.01-.812.476-1.54.913-2.158.157-.217.317-.427.472-.63.296-.388.552-.723.69-.987.061-.158.128-.322.194-.48.068-.167.133-.323.187-.47.04-.108.126-.195.233-.238.105-.043.23-.04.333.008 1.247.584 2.422 1.327 3.493 2.206 1.063.873 2.017 1.88 2.837 2.987.828 1.119 1.513 2.338 2.037 3.623.537 1.317.904 2.7 1.09 4.114.016.119-.02.238-.1.328-.077.09-.191.141-.31.141h-.013c-.054 0-.143.023-.255.052-.06.015-.129.033-.204.05-.269.092-.503.233-.752.384l-.094.057c-.269.157-.602.353-1.033.356zm-8.769-8.875l.001.001c.156.271.38.46.727.61.308.133.713.224 1.236.278.399.043.822.06 1.269.08.619.024 1.26.051 1.861.149.83.138 1.417.39 1.85.796.3.28.515.633.642 1.05l.01.035c.018.087.027.181.027.287-.003.32-.078.65-.159 1.001l-.052.23c-.1.44-.192.907-.192 1.353.006.689.206 1.19.648 1.627l.003.003c.208.209.397.358.56.446.13.068.23.097.338.098.145.001.321-.067.608-.24l.125-.074c.237-.144.533-.323.902-.447l.05-.013c.045-.008.097-.022.157-.038l.039-.011c-.793-5.036-3.982-9.408-8.533-11.698l-.033.081c-.068.166-.133.323-.187.468l-.02.045c-.193.368-.48.742-.786 1.14-.15.195-.306.397-.451.6-.352.483-.768 1.165-.757 1.675 0 .172.038.321.117.468zM24.948 35.79c-.09 0-.18-.029-.25-.082-.232-.174-.381-.394-.497-.586l-.006-.011c-.15-.266-.227-.569-.226-.875.01-.804.457-1.5.914-2.145.144-.2.293-.394.436-.583.317-.415.591-.775.731-1.058.526-1.142.826-2.426.824-3.524 0-.397-.038-.77-.115-1.11v-.002c-.086-.396-.136-.68-.137-.956 0-.202.03-.377.093-.533.068-.169.18-.323.327-.446.285-.237.65-.368 1.145-.501l.002-.001c.477-.123.902-.183 1.298-.183h.012c.844 0 1.467.292 1.984.567.089.046.178.094.265.142.477.257.97.523 1.642.723.942.274 1.575.657 1.937 1.172.081.116.098.264.044.395-.455 1.117-1.036 2.189-1.727 3.186-.684.987-1.477 1.904-2.358 2.725-.883.823-1.855 1.551-2.89 2.164-1.05.622-2.167 1.127-3.321 1.502-.04.014-.084.02-.127.02zm2.623-10.153c.09.399.134.832.134 1.29 0 1.231-.321 2.608-.902 3.874l-.005.013c-.2.391-.499.782-.816 1.196-.142.184-.288.375-.424.567-.505.688-.767 1.262-.758 1.66 0 .172.037.316.118.465.05.081.094.147.136.2 4.248-1.455 7.693-4.66 9.452-8.793-.27-.272-.723-.502-1.348-.685l-.002-.001c-.758-.224-1.309-.522-1.795-.785l-.266-.143c-.507-.264-.946-.467-1.608-.47-.324 0-.68.052-1.087.156-.323.085-.57.174-.712.257-.144.087-.174.136-.202.198-.022.055-.033.127-.033.222 0 .162.038.416.118.779zM8.727 5.818c-.555 0-1.077-.216-1.47-.609-.392-.392-.608-.914-.608-1.469s.216-1.077.608-1.47c.393-.392.915-.608 1.47-.608.555 0 1.077.216 1.47.609.391.392.608.914.608 1.469s-.217 1.077-.609 1.47c-.392.392-.914.608-1.47.608zm0-3.325c-.687.002-1.245.56-1.247 1.247.002.687.56 1.246 1.247 1.247.686-.001 1.246-.56 1.246-1.247 0-.686-.56-1.245-1.246-1.247z"/>
  </g>
</svg>