<?xml version="1.0" encoding="UTF-8"?>
<svg width="48px" height="48px" viewBox="0 0 48 48" version="1.1" xmlns="http://www.w3.org/2000/svg" xmlns:xlink="http://www.w3.org/1999/xlink">
    <title>just_checking_48x48_1px_icn</title>
    <g id="just_checking_48x48_1px_icn" stroke="none" stroke-width="1" fill="none" fill-rule="evenodd">
        <g fill="#263238" fill-rule="nonzero" id="urgent-message-4741_ce4d3cec-d3fa-49a4-863d-1fc83970074d">
            <g transform="translate(1.000000, 5.000000)">
                <path d="M45,0.5 C45.2761424,0.5 45.5,0.723857625 45.5,1 L45.5,1 L45.5,30.3333333 C45.5,30.6094757 45.2761424,30.8333333 45,30.8333333 L45,30.8333333 L23.193,30.833 L14.5378623,38.7685771 C14.2385416,39.0429544 13.7680817,38.8630682 13.706684,38.4841501 L13.706684,38.4841501 L13.7,38.4 L13.7,30.833 L1,30.8333333 C0.754540111,30.8333333 0.55039163,30.6564582 0.508055669,30.423209 L0.508055669,30.423209 L0.5,30.3333333 L0.5,1 C0.5,0.723857625 0.723857625,0.5 1,0.5 L1,0.5 Z M44.5,1.5 L1.5,1.5 L1.5,29.833 L14.2,29.8333333 C14.4454599,29.8333333 14.6496084,30.0102085 14.6919443,30.2434577 L14.6919443,30.2434577 L14.7,30.3333333 L14.7,37.263 L22.6621377,29.9647563 C22.7312989,29.9013585 22.8163994,29.859132 22.9074019,29.8419811 L22.9074019,29.8419811 L23,29.8333333 L44.5,29.833 L44.5,1.5 Z M23,22.5 C24.08616,22.5 24.9666667,23.3805067 24.9666667,24.4666667 C24.9666667,25.5528267 24.08616,26.4333333 23,26.4333333 C21.91384,26.4333333 21.0333333,25.5528267 21.0333333,24.4666667 C21.0333333,23.3805067 21.91384,22.5 23,22.5 Z M23,23.5 C22.4661247,23.5 22.0333333,23.9327914 22.0333333,24.4666667 C22.0333333,25.0005419 22.4661247,25.4333333 23,25.4333333 C23.5338753,25.4333333 23.9666667,25.0005419 23.9666667,24.4666667 C23.9666667,23.9327914 23.5338753,23.5 23,23.5 Z M24.987484,5.61251605 C25.4801719,6.10520395 25.7408067,6.78006073 25.7135161,7.45062489 L25.6988926,7.63325951 L24.9666667,18.6 C24.9666667,19.68616 24.08616,20.5666667 22.956446,20.5647692 C21.988458,20.4801251 21.2104378,19.7485966 21.0545819,18.794299 L21.0344408,18.6332595 L20.3013777,7.637092 C20.246249,6.89600513 20.5167207,6.16767167 21.0421962,5.6421962 C21.5676717,5.11672074 22.2960051,4.84624902 22.9409447,4.90349978 C23.6957325,4.81372288 24.4500062,5.07503834 24.987484,5.61251605 Z M23.1414855,5.88783053 L22.962908,5.89862229 C22.512064,5.86508446 22.0689787,6.02962731 21.749303,6.34930299 C21.4651468,6.63345914 21.3035648,7.01512419 21.2949103,7.41576436 L21.2988926,7.56674049 L22.0314328,18.556446 C22.0785002,19.094726 22.505274,19.5214998 23,19.5666667 C23.4957413,19.5666667 23.9043236,19.1934945 23.9610499,18.6861043 L23.9677741,18.5667405 L24.7136599,7.39098711 C24.7203869,6.99207488 24.5654908,6.60473646 24.2803772,6.31962283 C24.0309027,6.07014841 23.7031625,5.92037175 23.3126474,5.89233068 L23.1414855,5.88783053 Z" id="Combined-Shape"></path>
            </g>
        </g>
    </g>
</svg>