<?xml version="1.0" encoding="UTF-8"?>
<svg width="24px" height="24px" viewBox="0 0 24 24" version="1.1" xmlns="http://www.w3.org/2000/svg" xmlns:xlink="http://www.w3.org/1999/xlink">
    <title>location_24x24_1px_icn</title>
    <g id="location_24x24_1px_icn" stroke="none" stroke-width="1" fill="none" fill-rule="evenodd">
        <g>
            <g id="pin-627_97b57945-4460-4128-95db-649d34511571" transform="translate(4.500000, 1.000000)" fill="#263238" fill-rule="nonzero">
                <path d="M7.5,-0.5 C11.918278,-0.5 15.5,3.081722 15.5,7.5 C15.5,8.35831793 15.3852011,9.25374928 15.1641375,10.1822165 C14.5989945,12.555817 13.3659778,15.0711712 11.6660251,17.6211001 C10.8351238,18.8674522 9.94565063,20.0415567 9.05598564,21.1091547 C8.97807474,21.2026478 8.90153944,21.2936547 8.82649385,21.3821075 L8.82649385,21.3821075 L8.39500977,21.8816333 L8.19438677,22.1073924 L7.86206897,22.4698276 C7.66502463,22.6767241 7.33497537,22.6767241 7.13793103,22.4698276 L7.13793103,22.4698276 L6.60499023,21.8816333 L6.17350615,21.3821075 L5.94401436,21.1091547 C5.05434937,20.0415567 4.16487624,18.8674522 3.33397485,17.6211001 C1.63402224,15.0711712 0.401005494,12.555817 -0.164137482,10.1822165 C-0.385201108,9.25374928 -0.5,8.35831793 -0.5,7.5 C-0.5,3.081722 3.081722,-0.5 7.5,-0.5 Z M7.5,0.5 C3.63400675,0.5 0.5,3.63400675 0.5,7.5 C0.5,8.2764477 0.604927671,9.09488353 0.808668732,9.95059599 C1.34215857,12.1912533 2.52613401,14.6065632 4.16602515,17.0663999 C4.97574876,18.2809853 5.84408813,19.4271933 6.71223564,20.4689703 C6.86403102,20.6511248 7.01034249,20.8234487 7.15025187,20.985386 L7.15025187,20.985386 L7.5,21.383 L7.92023208,20.9035544 L8.28776436,20.4689703 C9.15591187,19.4271933 10.0242512,18.2809853 10.8339749,17.0663999 C12.473866,14.6065632 13.6578414,12.1912533 14.1913313,9.95059599 C14.3950723,9.09488353 14.5,8.2764477 14.5,7.5 C14.5,3.63400675 11.3659932,0.5 7.5,0.5 Z M7.5,4 C9.43299662,4 11,5.56700338 11,7.5 C11,9.43299662 9.43299662,11 7.5,11 C5.56700338,11 4,9.43299662 4,7.5 C4,5.56700338 5.56700338,4 7.5,4 Z M7.5,5 C6.11928813,5 5,6.11928813 5,7.5 C5,8.88071187 6.11928813,10 7.5,10 C8.88071187,10 10,8.88071187 10,7.5 C10,6.11928813 8.88071187,5 7.5,5 Z" id="Combined-Shape"></path>
            </g>
            <rect id="Bounding-box" x="0" y="0" width="24" height="24"></rect>
        </g>
    </g>
</svg>