<svg xmlns="http://www.w3.org/2000/svg" width="188" height="32" viewBox="0 0 188 32">
    <g>
        <g>
            <path d="M9.65 23.814c-.018-8.968 6.323-16.69 15.123-18.418l-.667-.384c-1.133.25-2.24.605-3.307 1.06-4.588 1.968-8.231 5.644-10.159 10.249-.995 2.373-1.505 4.92-1.5 7.494-.006 1.88.246 3.75.748 5.561l.639.367c-.588-1.921-.884-3.92-.877-5.929"/>
            <path d="M11.642 23.81c-.026-8.99 7.076-16.385 16.06-16.723l-.885-.511c-1.812.147-3.587.586-5.259 1.3-4.12 1.768-7.39 5.066-9.124 9.2-.894 2.13-1.352 4.42-1.347 6.73-.014 2.38.444 4.741 1.347 6.944.015.04.032.079.049.119l.822.475c-1.109-2.356-1.677-4.93-1.663-7.534M21.63 23.792c-.012-3.652 2.922-6.63 6.573-6.674V16.3c-1.964.007-3.844.8-5.22 2.2-1.401 1.407-2.184 3.314-2.176 5.3-.008 1.265.296 2.513.885 3.633l.7-.406c-.514-.997-.779-2.104-.771-3.226M3.658 23.824C3.648 14.237 9.16 5.501 17.817 1.382l-.379-.22C11.95 3.834 7.622 8.413 5.262 14.043c-1.3 3.097-1.966 6.423-1.96 9.782 0 .6.02 1.194.058 1.782l.37.212c-.047-.656-.071-1.32-.071-1.994"/>
            <path d="M23.625 23.789c-.009-2.547 2.035-4.626 4.582-4.661v-.87c-3.027.036-5.46 2.504-5.451 5.531-.006.923.213 1.834.639 2.653l.75-.432c-.35-.688-.528-1.45-.523-2.222M1.66 23.828C1.65 13.957 7.058 4.877 15.743.184L15.424 0C10.053 2.95 5.838 7.632 3.468 13.283c-1.4 3.339-2.118 6.924-2.11 10.545 0 .21 0 .418.006.625l.307.178c-.008-.266-.011-.534-.011-.8"/>
            <path d="M5.654 23.821c-.011-9.33 5.662-17.724 14.323-21.193l-.452-.258c-.081.035-.162.069-.243.1-5.521 2.37-9.906 6.792-12.228 12.333-1.198 2.855-1.812 5.922-1.806 9.018 0 .993.056 1.986.17 2.973l.442.254c-.137-1.07-.206-2.148-.206-3.227"/>
            <path d="M7.65 23.818C7.637 14.706 13.566 6.65 22.269 3.951l-.543-.314c-.569.187-1.13.398-1.685.635-2.502 1.067-4.773 2.611-6.684 4.547-3.957 3.988-6.172 9.382-6.16 15-.002 1.416.125 2.83.382 4.223l.525.3c-.302-1.49-.452-3.006-.45-4.526M16.918 23.8c-.012 1.948.46 3.87 1.374 5.59l.613-.355c-.85-1.613-1.286-3.412-1.272-5.235-.02-5.868 4.704-10.65 10.572-10.7v-.715c-2.998.003-5.87 1.207-7.972 3.344-2.133 2.143-3.326 5.047-3.315 8.071M0 17.957v1.453C1.085 12.364 4.74 5.969 10.259 1.456l-1.239.717c-.4.36-.79.732-1.17 1.117C3.86 7.31 1.132 12.408 0 17.958M0 12.027c1.025-2.483 2.37-4.822 4-6.958l-.478.275C2.116 7.251.933 9.314-.003 11.49l.003.537zM25.622 23.784c-.005-1.44 1.145-2.618 2.585-2.648v-.923c-1.946.034-3.505 1.624-3.5 3.571-.002.582.135 1.156.4 1.674l.8-.464c-.188-.376-.285-.79-.283-1.21"/>
            <path d="M17.482 12.966c-2.858 2.884-4.458 6.782-4.448 10.842-.018 2.63.622 5.225 1.86 7.546l.521-.3c-1.18-2.232-1.788-4.722-1.769-7.246C13.62 15.73 20.129 9.15 28.207 9.087v-.611c-2.025-.002-4.03.406-5.892 1.2-1.809.772-3.45 1.888-4.833 3.286M27.619 23.781c-.001-.334.255-.611.588-.636v-.974c-.542.02-1.038.31-1.32.773-.282.463-.312 1.037-.08 1.527l.849-.49c-.021-.065-.032-.132-.033-.2"/>
            <path d="M18.858 14.349c-2.494 2.514-3.89 5.912-3.884 9.453-.016 2.29.54 4.55 1.617 6.571l.567-.329c-1.014-1.923-1.536-4.068-1.52-6.242-.022-6.973 5.596-12.653 12.569-12.707v-.664c-3.514.006-6.88 1.416-9.349 3.918"/>
            <path d="M18.866 23.797c-.01 1.607.378 3.19 1.129 4.611l.658-.379c-.681-1.306-1.032-2.76-1.021-4.232-.017-4.762 3.817-8.643 8.579-8.685v-.767c-2.482.002-4.86 1-6.6 2.769-1.766 1.775-2.754 4.18-2.745 6.683M16.187 20.87c.499-2.066 1.515-3.971 2.953-5.536l-.42-1.121-.013.013c-1.814 1.826-3.072 4.13-3.626 6.644h1.106zM13.78 6.492h-.94c-.32.29-.633.59-.939.9l-.072.072-.563 1.519c.771-.895 1.612-1.727 2.513-2.491"/>
            <path d="M21.943 22.982c0-.037.009-.073.016-.109l-.8-2.13c-.304.713-.5 1.468-.58 2.239h1.364zM19.914 22.983c.105-1.083.42-2.136.926-3.1l-.565-1.515c-.93 1.373-1.489 2.963-1.625 4.616l1.264-.001zM14.12 20.87c.235-1.144.607-2.255 1.108-3.31h-1.082l-.1.228c-.416.991-.728 2.023-.93 3.079l1.004.003zM12.065 20.87c.204-1.133.525-2.24.958-3.307h-.958c-.407 1.07-.709 2.178-.9 3.307h.9z"/>
            <path d="M10.504 16.289c-.895 2.124-1.403 4.39-1.5 6.693h.8c.241-5.396 2.81-10.422 7.043-13.777l-.293-.789c-2.664 2.057-4.749 4.77-6.05 7.873"/>
            <path d="M9.343 14.199L7.68 18.711c-.343 1.4-.544 2.83-.6 4.271h.7c.252-6.24 3.311-12.032 8.323-15.758l-.259-.693c-2.747 2.003-4.976 4.632-6.505 7.668M15.227 15.523l.44 1.19c.718-1.283 1.626-2.451 2.692-3.464l-.373-1c-.22.2-.433.403-.642.61-.801.808-1.511 1.701-2.118 2.664M17.199 20.87l.707 1.9c.189-1.907.897-3.726 2.048-5.259l-.478-1.278c-1.149 1.341-1.975 2.927-2.416 4.637h.139zM14.409 13.315l.374 1.01c.803-1.153 1.749-2.199 2.815-3.113l-.334-.892c-.444.368-.871.758-1.281 1.171-.566.571-1.092 1.18-1.574 1.824"/>
        </g>
        <g>
            <path d="M5.851 12.19h3.857l-1.95-5.264-1.907 5.264zm.126-10.885h3.587l6.061 16.212h-3.943l-.774-2.082H4.677l-.735 2.078H0L5.977 1.305zM21.134 4.848v4.593h1.845c.642.086 1.288-.121 1.76-.565.471-.443.718-1.075.671-1.721.013-.645-.25-1.265-.722-1.705-.472-.44-1.11-.659-1.752-.601l-1.802-.001zm-3.8-3.544h6c1.584-.078 3.129.51 4.26 1.62 1.131 1.112 1.746 2.646 1.696 4.231-.007 1.579-.658 3.086-1.802 4.175-1.144 1.088-2.682 1.663-4.259 1.592h-2.1v4.594h-3.8l.005-16.212zM35.113 4.535v4.74h2.118c.67.07 1.338-.156 1.826-.62.489-.465.749-1.12.712-1.793-.018-.656-.304-1.276-.791-1.716-.487-.44-1.133-.661-1.788-.612l-2.077.001zm-3.8-3.229h6.545c1.515-.092 3 .458 4.089 1.515 1.089 1.058 1.683 2.525 1.636 4.042.055 2.38-1.509 4.494-3.8 5.139l3.944 5.515H39.51l-3.642-5.282h-.755v5.285h-3.8V1.306zM50.749 12.19h3.859l-1.95-5.264-1.909 5.264zm.127-10.885h3.59l6.06 16.212h-3.943l-.775-2.078h-6.229l-.733 2.078h-3.943l5.973-16.212zM73.326 12.222h3.859l-1.95-5.263-1.909 5.263zm.124-10.884h3.587l6.061 16.212h-3.943l-.775-2.077h-6.228l-.735 2.077h-3.943L73.45 1.338zM84.812 1.336L88.482 1.336 93.223 8.508 98.023 1.336 101.798 1.336 101.798 17.548 98.129 17.548 98.129 7.586 97.981 7.586 93.221 14.486 88.543 7.628 88.48 7.628 88.48 17.547 84.81 17.547zM104.456 9.411c.004-3.457 2.12-6.561 5.336-7.83 3.216-1.268 6.88-.444 9.244 2.08l-2.688 2.6c-1.308-1.46-3.381-1.963-5.213-1.263-1.831.7-3.04 2.458-3.04 4.418 0 1.961 1.209 3.718 3.04 4.419 1.832.7 3.905.198 5.213-1.263l2.685 2.58c-2.362 2.52-6.023 3.344-9.237 2.078-3.214-1.266-5.33-4.365-5.34-7.819M132.825 9.411c-.063-2.537-2.158-4.55-4.696-4.51-2.538.04-4.57 2.116-4.552 4.654.016 2.538 2.075 4.589 4.613 4.595 1.244-.01 2.433-.516 3.303-1.406.87-.89 1.35-2.089 1.332-3.333m-13.064 0c-.013-3.417 2.037-6.505 5.19-7.82 3.155-1.316 6.791-.6 9.21 1.814 2.42 2.413 3.145 6.047 1.838 9.205-1.308 3.157-4.39 5.214-7.808 5.21-2.234.005-4.377-.879-5.959-2.456-1.581-1.578-2.47-3.72-2.471-5.953M137.705 15.408l2.37-2.957c.89 1.121 2.203 1.827 3.629 1.952 1.069 0 1.8-.567 1.8-1.366 0-.753-.358-1.34-1.427-1.781l-1.7-.691c-2.412-.986-3.628-2.287-3.628-4.594.088-2.705 2.327-4.84 5.033-4.8 1.9-.079 3.75.626 5.117 1.95l-2.138 2.831c-.715-.913-1.82-1.432-2.979-1.4-.943 0-1.468.524-1.468 1.195s.482 1.048 1.406 1.426l1.8.734c2.475 1.006 3.649 2.726 3.649 4.782 0 2.935-2.118 5.1-5.683 5.1-2.159-.035-4.225-.881-5.789-2.37" transform="translate(37.617 5.707)"/>
        </g>
    </g>
</svg>
