<svg width="15" height="18" viewBox="0 0 15 18" version="1.1" xmlns="http://www.w3.org/2000/svg" xmlns:xlink="http://www.w3.org/1999/xlink">
  <g id="Page-1" stroke="none" stroke-width="1" fill="none" fill-rule="evenodd">
      <g id="Group" fill="#263238" fill-rule="nonzero">
          <g id="Shape">
              <path d="M2.73591771,17.1563246 C1.29698743,17.1563246 0.126390857,15.985728 0.126390857,14.5470446 C0.126390857,13.1081143 1.29698743,11.9375177 2.73591771,11.9375177 C4.17509486,11.9375177 5.34569143,13.1081143 5.34569143,14.5470446 C5.34569143,15.985728 4.174848,17.1563246 2.73591771,17.1563246 Z M2.73591771,12.4309851 C1.56927086,12.4309851 0.620105143,13.3801509 0.620105143,14.5467977 C0.620105143,15.7134446 1.56927086,16.6623634 2.73591771,16.6623634 C3.90281143,16.6623634 4.85197714,15.7131977 4.85197714,14.5467977 C4.85197714,13.3801509 3.90256457,12.4309851 2.73591771,12.4309851 Z"></path>
              <path d="M5.34569143,14.5470446 L4.85197714,14.5470446 L4.85197714,0.123428571 L13.6976091,0.123428571 L13.6976091,4.752 L5.34569143,4.752 L5.34569143,14.5470446 Z M5.34569143,4.25828571 L13.2038949,4.25828571 L13.2038949,0.617142857 L5.34569143,0.617142857 L5.34569143,4.25828571 Z"></path>
          </g>
          <g transform="translate(8.393143, 0.246857)">
              <path d="M2.69469257,16.9094674 C1.25576229,16.9094674 0.0851657143,15.7388709 0.0851657143,14.3001874 C0.0851657143,12.8612571 1.25576229,11.6906606 2.69469257,11.6906606 C4.13362286,11.6906606 5.30446629,12.8612571 5.30446629,14.3001874 C5.30446629,15.7388709 4.13362286,16.9094674 2.69469257,16.9094674 Z M2.69469257,12.184128 C1.52779886,12.184128 0.57888,13.1332937 0.57888,14.2999406 C0.57888,15.4665874 1.52804571,16.4155063 2.69469257,16.4155063 C3.86133943,16.4155063 4.810752,15.4663406 4.810752,14.2999406 C4.810752,13.1332937 3.86158629,12.184128 2.69469257,12.184128 Z" id="Shape"></path>
              <rect id="Rectangle" x="4.810752" y="0.123428571" width="0.5" height="14.1767589"></rect>
          </g>
      </g>
  </g>
</svg>