<?xml version="1.0" encoding="UTF-8"?>
<svg width="24px" height="24px" viewBox="0 0 24 24" version="1.1" xmlns="http://www.w3.org/2000/svg" xmlns:xlink="http://www.w3.org/1999/xlink">
    <title>music_note_24x24_icn</title>
    <g id="music_note_24x24_icn" stroke="none" stroke-width="1" fill="none" fill-rule="evenodd">
        <g fill="#263238" fill-rule="nonzero" id="music_note_slate">
            <g transform="translate(2.000000, 0.000000)">
                <path d="M18.75,17 C18.75,18.9329966 17.1829966,20.5 15.25,20.5 C13.3170034,20.5 11.75,18.9329966 11.75,17 C11.75,15.1314366 13.2142776,13.6048736 15.0579648,13.5051789 L15.25,13.5 L17.75,13.4997269 L17.75,5.43672691 L7.5,8.17072691 L7.5,20 C7.5,21.9329966 5.93299662,23.5 4,23.5 C2.06700338,23.5 0.5,21.9329966 0.5,20 C0.5,18.1314366 1.9642776,16.6048736 3.8079648,16.5051789 L4,16.5 L6.5,16.4997269 L6.5,4 C6.5,3.80179032 6.61659854,3.62524809 6.79237847,3.54510815 L6.87116867,3.51688253 L18.1211687,0.51688253 C18.438592,0.43223632 18.75,0.671484362 18.75,1 L18.75,1 L18.75,17 Z M6.5,17.5 L4,17.5 C2.61928813,17.5 1.5,18.6192881 1.5,20 C1.5,21.3807119 2.61928813,22.5 4,22.5 C5.3254834,22.5 6.41003867,21.4684641 6.49468232,20.1643757 L6.5,20 L6.5,17.5 Z M17.75,14.5 L15.25,14.5 C13.8692881,14.5 12.75,15.6192881 12.75,17 C12.75,18.3807119 13.8692881,19.5 15.25,19.5 C16.5754834,19.5 17.6600387,18.4684641 17.7446823,17.1643757 L17.75,17 L17.75,14.5 Z M17.75,1.65 L7.5,4.384 L7.5,7.136 L17.75,4.403 L17.75,1.65 Z" id="Combined-Shape"></path>
            </g>
        </g>
    </g>
</svg>