<?xml version="1.0" encoding="UTF-8"?>
<svg width="48px" height="48px" viewBox="0 0 48 48" version="1.1" xmlns="http://www.w3.org/2000/svg" xmlns:xlink="http://www.w3.org/1999/xlink">
    <title>music_note_48x48_1px_icn</title>
    <g id="music_note_48x48_1px_icn" stroke="none" stroke-width="1" fill="none" fill-rule="evenodd">
        <g fill="#263238" fill-rule="nonzero" id="music_note_slate">
            <g transform="translate(5.000000, 1.000000)">
                <path d="M36,33 C36,36.5898509 33.0898509,39.5 29.5,39.5 C25.9101491,39.5 23,36.5898509 23,33 C23,29.4881894 25.7849962,26.6268494 29.2668659,26.504103 L29.5,26.5 L35,26.4997269 L35,9.22472691 L13.5,14.9587269 L13.5,39 C13.5,42.5898509 10.5898509,45.5 7,45.5 C3.41014913,45.5 0.5,42.5898509 0.5,39 C0.5,35.4881894 3.28499621,32.6268494 6.76686587,32.504103 L7,32.5 L12.5,32.4997269 L12.5,7 C12.5,6.80179032 12.6165985,6.62524809 12.7923785,6.54510815 L12.8711687,6.51688253 L35.3711687,0.51688253 C35.688592,0.43223632 36,0.671484362 36,1 L36,1 L36,33 Z M12.5,33.5 L7,33.5 C3.96243388,33.5 1.5,35.9624339 1.5,39 C1.5,42.0375661 3.96243388,44.5 7,44.5 C9.96347915,44.5 12.3795391,42.15622 12.4956328,39.2212071 L12.5,39 L12.5,33.5 Z M35,27.5 L29.5,27.5 C26.4624339,27.5 24,29.9624339 24,33 C24,36.0375661 26.4624339,38.5 29.5,38.5 C32.4634791,38.5 34.8795391,36.15622 34.9956328,33.2212071 L35,33 L35,27.5 Z M35,1.65 L13.5,7.384 L13.5,13.923 L35,8.19 L35,1.65 Z" id="Combined-Shape"></path>
            </g>
        </g>
    </g>
</svg>