<svg xmlns="http://www.w3.org/2000/svg" width="43" height="40" viewBox="0 0 43 40">
  <path fill="#4B5A6E" d="M34.724.462c-2.543.082-4.769 1.733-5.583 4.144-.815 2.41-.049 5.073 1.923 6.68l-1.829 1.519c-1.696-1.912-4.13-3.006-6.685-3.006-2.555 0-4.989 1.094-6.685 3.006l-2.921-2.425c1.466-2.101 1.024-4.983-1.003-6.548-2.028-1.566-4.927-1.264-6.59.685-1.661 1.95-1.5 4.86.367 6.615 1.867 1.754 4.782 1.733 6.624-.047l2.945 2.445c-2.229 3.112-2.229 7.297 0 10.409l-1.655 1.372c-3.293-2.928-8.318-2.705-11.34.503-3.02 3.209-2.942 8.238.179 11.35 3.12 3.112 8.15 3.177 11.35.147 3.2-3.03 3.409-8.056.471-11.342l1.573-1.305c1.696 1.912 4.13 3.006 6.685 3.006 2.556 0 4.99-1.094 6.685-3.006l3.02 2.507c-2.85 2.09-3.537 6.06-1.554 8.986 1.983 2.926 5.925 3.76 8.922 1.887 2.998-1.873 3.977-5.78 2.218-8.846-1.76-3.065-5.629-4.19-8.757-2.545l-3.27-2.714c2.23-3.112 2.23-7.297 0-10.409l2.041-1.694c2.24 1.3 5.057 1.044 7.026-.639 1.969-1.683 2.66-4.425 1.725-6.84C39.671 1.94 37.312.38 34.724.461zm.065.914c1.396-.036 2.748.495 3.748 1.471.999.977 1.56 2.316 1.556 3.714.02 1.86-.962 3.586-2.57 4.522-1.607.935-3.593.935-5.2 0-1.608-.936-2.589-2.663-2.57-4.522-.008-2.81 2.228-5.112 5.036-5.185zM8.927 3.732c1.046-.022 2.057.38 2.801 1.115.745.735 1.16 1.74 1.152 2.786.01 1.39-.725 2.679-1.927 3.377-1.201.698-2.685.698-3.887 0S5.128 9.023 5.139 7.633c-.017-2.117 1.67-3.856 3.788-3.9zm13.419 6.975c2.163-.056 4.256.766 5.803 2.278 1.547 1.512 2.416 3.586 2.41 5.75.028 2.878-1.491 5.55-3.98 6.998-2.488 1.448-5.562 1.448-8.05 0-2.489-1.447-4.008-4.12-3.98-6.999-.013-4.35 3.449-7.914 7.797-8.027zM8.032 24.152c1.949-.05 3.835.691 5.228 2.055 1.394 1.363 2.176 3.232 2.169 5.181 0 2.578-1.375 4.96-3.606 6.248-2.232 1.289-4.982 1.289-7.214 0s-3.607-3.67-3.606-6.248c-.015-3.922 3.108-7.137 7.03-7.236zm27.947 2.68c1.524-.044 3.002.53 4.096 1.593 1.094 1.062 1.71 2.522 1.71 4.047 0 3.114-2.526 5.639-5.641 5.639s-5.64-2.525-5.642-5.64c0-3.051 2.427-5.55 5.477-5.638z"/>
</svg>