<svg xmlns="http://www.w3.org/2000/svg" width="33" height="40" viewBox="0 0 33 40">
  <g fill="none" fill-rule="evenodd" stroke="#4B5A6E" stroke-width="1.053">
      <path d="M16.984 18.487C10.603 29.32 1.283 28.827.098 35.023M16.678 18.994c0 2.114 4.07-.39 2.228 3.94M.01 34.597c3.334 4.526 5.636 3.572 7.27 1.117M7.078 36.003c2.143-2.985 3.343-7.076 7.472-7.076M14.015 29.397c0-3.377 4.04-4.408 4.943-6.58M.01 39.397c-.164-.636 1.865-2.96 1.744-.56M22.828 0c1.013 6.677 2.183 8.213-.45 13.542M22.482 13.33c-.268 1.21-5.093 1.626 0 4.203M20.205 20.906c1.614-1.378 2.01-2.924 2.01-3.812M26.59 15.746c0 3.418-2.347 3.432-5.077 6.063M20.405 20.46c.088.639.68 2.04 1.36 1.097M26.337 7.764c-.483 2.193.582 4.725 4.365 2.324M26.59 16.14c-.165-.811.811-1.546 2.083-1.436M28.3 14.818c4.177-3.283 2.21-3.99 1.743-4.73M22.993.515c4.835-.998-.614 7.139 3.202 7.763M.01 39.222c-.18.701 2.04-.151 1.749-.705" transform="translate(1 1)"/>
  </g>
</svg>