<svg xmlns="http://www.w3.org/2000/svg" width="26" height="26" viewBox="0 0 26 26">
    <g fill="none" fill-rule="evenodd" stroke-linecap="round" stroke-linejoin="round">
        <g stroke="#263238" stroke-width=".5">
            <g>
                <g>
                    <path d="M21.6 14.4c-.688-.008-1.345.284-1.8.8-.56.56-2.2.8-2.2-.8v-8h-6.4c-1.6 0-1.36-1.64-.8-2.2.742-.663.997-1.716.642-2.645C10.687.625 9.795.01 8.8.01c-.995 0-1.887.614-2.242 1.544s-.1 1.982.642 2.645c.56.56.8 2.2-.8 2.2H0v3.2c0 1.6 1.64 1.36 2.2.8.455-.516 1.112-.808 1.8-.8 1.101.005 2.058.76 2.32 1.83.262 1.069-.238 2.18-1.212 2.693-.975.514-2.174.298-2.908-.523-.56-.56-2.2-.8-2.2.8V24h9.6c1.6 0 1.36-1.64.8-2.2-.516-.455-.808-1.112-.8-1.8.005-1.101.76-2.058 1.83-2.32 1.069-.262 2.18.238 2.693 1.212.514.975.298 2.174-.523 2.908-.56.56-.8 2.2.8 2.2h3.2v-4.8c0-1.6 1.64-1.36 2.2-.8.734.821 1.933 1.037 2.908.523.974-.513 1.474-1.624 1.212-2.694-.262-1.07-1.219-1.824-2.32-1.829h0z" transform="translate(-893 -723) translate(856 260) translate(38 464)"/>
                </g>
            </g>
        </g>
    </g>
</svg>
