<?xml version="1.0" encoding="UTF-8"?>
<svg width="21px" height="21px" viewBox="0 0 21 21" version="1.1" xmlns="http://www.w3.org/2000/svg" xmlns:xlink="http://www.w3.org/1999/xlink">
    <title>Orion_add-circle</title>
    <g id="Symbols" stroke="none" stroke-width="1" fill="none" fill-rule="evenodd">
        <g id="Add-another-btn-/-disabled" transform="translate(0.000000, -2.000000)" fill="#0068C8" fill-rule="nonzero">
            <g id="Orion_add-circle" transform="translate(0.000000, 2.000000)">
                <path d="M10.25,0 C4.58908131,0 0,4.58908131 0,10.25 C0,15.9109187 4.58908131,20.5 10.25,20.5 C15.9109187,20.5 20.5,15.9109187 20.5,10.25 C20.5,4.58908131 15.9109187,0 10.25,0 Z M10.25,1.5 C15.0824916,1.5 19,5.41750844 19,10.25 C19,15.0824916 15.0824916,19 10.25,19 C5.41750844,19 1.5,15.0824916 1.5,10.25 C1.5,5.41750844 5.41750844,1.5 10.25,1.5 Z" id="Oval"></path>
                <path d="M10.25,4.5 C10.6296958,4.5 10.943491,4.78215388 10.9931534,5.14822944 L11,5.25 L11,9.5 L15.25,9.5 C15.6642136,9.5 16,9.83578644 16,10.25 C16,10.6296958 15.7178461,10.943491 15.3517706,10.9931534 L15.25,11 L11,11 L11,15.25 C11,15.6642136 10.6642136,16 10.25,16 C9.87030423,16 9.55650904,15.7178461 9.50684662,15.3517706 L9.5,15.25 L9.5,11 L5.25,11 C4.83578644,11 4.5,10.6642136 4.5,10.25 C4.5,9.87030423 4.78215388,9.55650904 5.14822944,9.50684662 L5.25,9.5 L9.5,9.5 L9.5,5.25 C9.5,4.83578644 9.83578644,4.5 10.25,4.5 Z" id="Shape"></path>
            </g>
        </g>
    </g>
</svg>