<svg xmlns="http://www.w3.org/2000/svg" width="25" height="24" viewBox="0 0 25 24">
    <g fill="none" fill-rule="evenodd" stroke-linecap="round" stroke-linejoin="round">
        <g stroke="#263238" stroke-width=".5">
            <g>
                <g transform="translate(-893 -676) translate(856 260) translate(38 416)">
                    <path d="M12.774 8.671c-1.633-.91-3.668-.66-5.032.62-.28.284-.516.61-.697.967C6.658 10.916 6 11.961 4.53 12h-.348c-1.037.147-2 .622-2.749 1.355-2.09 2.168-1.858 5.845.542 8.284 2.4 2.438 6.078 2.67 8.207.542.727-.737 1.202-1.686 1.354-2.71.03-.087.043-.18.04-.271.086-1.12.745-2.114 1.741-2.632.37-.178.71-.413 1.007-.697 1.292-1.355 1.558-3.39.658-5.032"/>
                    <path d="M7.045 14.361L20.245 1.2c.62-.62 1.045-1.161 1.626-.542l1.084 1.084c.62.62.039 1.045-.542 1.626l-13.2 13.2"/>
                    <circle cx="6.912" cy="16.688" r="2.323" transform="rotate(-45 6.912 16.688)"/>
                    <path d="M22.413 1.2L4.219 19.394M2.865 18.039L5.574 20.748"/>
                </g>
            </g>
        </g>
    </g>
</svg>
