<svg xmlns="http://www.w3.org/2000/svg" width="26" height="26" viewBox="0 0 26 26">
    <g fill="none" fill-rule="evenodd" stroke-linecap="round" stroke-linejoin="round">
        <g stroke="#263238" stroke-width=".5">
            <g>
                <g>
                    <path d="M2.8 21.2L0 24M11.2 8L1.6 20 4 22.4l12.04-9.6m-5.64.8l-1.6 1.6" transform="translate(-893 -339) translate(856 260) translate(38 80)"/>
                    <path d="M11.48 4.28l8.24 8.24m-4.04.28h2.88c1.698-.275 3.217-1.213 4.222-2.609 1.006-1.395 1.415-3.133 1.138-4.831-.544-3.12-3.278-5.382-6.445-5.332-3.168.05-5.829 2.396-6.275 5.532v2.76c.005.317.134.618.36.84l3.28 3.28c.222.226.523.355.84.36h0z" transform="translate(-893 -339) translate(856 260) translate(38 80)"/>
                </g>
            </g>
        </g>
    </g>
</svg>
