<svg xmlns="http://www.w3.org/2000/svg" width="29" height="26" viewBox="0 0 29 26">
    <g fill="none" fill-rule="evenodd" stroke-linecap="round" stroke-linejoin="round">
        <g stroke="#263238" stroke-width=".5">
            <g>
                <g>
                    <path d="M3.692 0L0 0 0 24 3.692 24M12.923 14.77h-1.846c-1.02 0-1.846.826-1.846 1.845 0 1.02.826 1.847 1.846 1.847s1.846-.827 1.846-1.847V6.462l7.385-1.847V14.77c0 1.02-.827 1.846-1.846 1.846-1.02 0-1.847-.826-1.847-1.846s.827-1.846 1.847-1.846h1.846" transform="translate(-891 -435) translate(856 260) translate(36 176)"/>
                    <path d="M3.692 0L27.692 0 27.692 24 3.692 24z" transform="translate(-891 -435) translate(856 260) translate(36 176)"/>
                </g>
            </g>
        </g>
    </g>
</svg>
