<svg xmlns="http://www.w3.org/2000/svg" width="21" height="21" viewBox="0 0 21 21">
    <!-- <defs>
        <filter id="4v8yvicova">
            <feColorMatrix in="SourceGraphic" values="0 0 0 0 0.890196 0 0 0 0 0.109804 0 0 0 0 0.239216 0 0 0 1.000000 0"/>
        </filter>
    </defs> -->
    <g fill="none" fill-rule="evenodd">
        <g transform="translate(0 -2)">
            <g fill="#E31C3D" fill-rule="nonzero">
                <path d="M10.25 0C4.59 0 0 4.59 0 10.25S4.59 20.5 10.25 20.5 20.5 15.91 20.5 10.25 15.91 0 10.25 0zm0 1.5c4.832 0 8.75 3.918 8.75 8.75S15.082 19 10.25 19 1.5 15.082 1.5 10.25 5.418 1.5 10.25 1.5z" transform="translate(0 2)"/>
                <path d="M15.25 9.5c.414 0 .75.336.75.75 0 .38-.282.693-.648.743L15.25 11h-10c-.414 0-.75-.336-.75-.75 0-.38.282-.693.648-.743L5.25 9.5h10z" transform="translate(0 2)"/>
            </g>
        </g>
    </g>
</svg>
