<?xml version="1.0" encoding="UTF-8"?>
<svg width="24px" height="24px" viewBox="0 0 24 24" version="1.1" xmlns="http://www.w3.org/2000/svg" xmlns:xlink="http://www.w3.org/1999/xlink">
    <title>paper_plane_24x24_icn</title>
    <g id="paper_plane_24x24_icn" stroke="none" stroke-width="1" fill="none" fill-rule="evenodd">
        <g>
            <g id="paper-plane-4728_b3937962-8976-4405-9bca-775421f42aa1" transform="translate(0.000000, 1.000000)" fill="#263238" fill-rule="nonzero">
                <path d="M21.8030404,0.540427485 C21.9413517,0.48115118 22.0834921,0.48896772 22.2030635,0.542720385 C22.2080386,0.545142077 22.2137695,0.547806158 22.2194585,0.550584705 C22.2377521,0.559509443 22.2547909,0.56922283 22.2712061,0.579872683 C22.2792416,0.585004589 22.2876253,0.590782654 22.2958651,0.596845373 C22.3123469,0.609066105 22.3277288,0.621856112 22.3423178,0.635508819 C22.3459617,0.638973158 22.3497802,0.642673428 22.3535534,0.646446609 C22.4341561,0.728406144 22.4859253,0.831019234 22.4977924,0.946190368 C22.4982351,0.95662466 22.4990259,0.967018817 22.4994933,0.977424792 C22.5014913,1.01431094 22.498805,1.05284368 22.4914361,1.09214427 L22.499243,1.02758819 C22.4985407,1.04037659 22.4973495,1.05314315 22.4956697,1.06585749 L22.4914361,1.09214427 L19.1164361,19.0921443 C19.0515326,19.4382963 18.6586521,19.6106564 18.3600005,19.4239992 L18.3600005,19.4239992 L13.6189978,16.4551035 L10.0335615,21.5382317 C9.76987458,21.9120015 9.20206025,21.7604571 9.13211349,21.3380233 L9.125,21.25 L9.12499778,13.7161035 L0.817800326,10.4656214 C0.431036929,10.3142792 0.395349803,9.79817388 0.7213774,9.58415136 L0.803040351,9.54042748 Z M10.1249978,14.2681035 L10.125,19.672 L12.7699978,15.9231035 L10.1249978,14.2681035 Z M21.2109978,2.49510354 L10.4229978,13.2831035 L13.6638617,15.3070064 C13.6752352,15.3113015 13.6865053,15.316035 13.6976485,15.321211 L13.7757317,15.3664385 L13.8329978,15.4151035 L18.268,18.188 L21.2109978,2.49510354 Z M19.8119978,2.48010354 L2.316,9.979 L9.49599778,12.7961035 L19.8119978,2.48010354 Z" id="Combined-Shape"></path>
            </g>
            <rect id="Rectangle" x="0" y="0" width="24" height="24"></rect>
        </g>
    </g>
</svg>