<?xml version="1.0" encoding="UTF-8"?>
<svg width="48px" height="48px" viewBox="0 0 48 48" version="1.1" xmlns="http://www.w3.org/2000/svg" xmlns:xlink="http://www.w3.org/1999/xlink">
    <title>playlist_48x48_1px_icn</title>
    <g id="playlist_48x48_1px_icn" stroke="none" stroke-width="1" fill="none" fill-rule="evenodd">
        <g transform="translate(-1.000000, 0.000000)" fill="#263238" fill-rule="nonzero" id="playlist-slate">
            <g transform="translate(0.800000, 0.600000)">
                <path d="M35.3040168,0.583974853 C35.5279351,0.733253716 35.7519488,0.870126436 35.9868902,0.9999029 L36.348852,1.18990914 C36.6595733,1.34491874 36.9958317,1.49298879 37.3787837,1.64449017 L37.8620931,1.82860258 C37.9468315,1.85978374 38.0337761,1.89126808 38.1230963,1.92313857 L38.6888772,2.11965913 L39.3197943,2.32942979 L39.8727594,2.50832943 C40.0887854,2.57788018 40.299715,2.64732527 40.5056331,2.71684839 L41.1084381,2.92583551 C41.2064282,2.96076694 41.3031867,2.9957638 41.3987242,3.03084905 L41.9573823,3.24260491 C46.3107921,4.94807618 47.9,6.9630009 47.9,11.8266667 C47.9,12.1356364 47.6225664,12.3706579 47.3178005,12.3198636 L46.1289085,12.1245729 L44.9916629,11.9434764 L43.3813668,11.6978107 L42.3707075,11.5509294 L40.9475803,11.3552253 L40.0598934,11.2407444 L39.2203834,11.1387154 L38.4284722,11.0488481 L37.6835815,10.9708519 L36.8057607,10.8888657 L36.0568277,10.8303345 L35.526,10.798 L35.5266667,39.6666667 C35.5266667,43.2810374 32.6589812,46.2256243 29.0747481,46.3492897 L28.84,46.3533333 C25.147056,46.3533333 22.1533333,43.3596107 22.1533333,39.6666667 C22.1533333,36.0522959 25.0210188,33.107709 28.6052519,32.9840436 L28.84,32.98 L34.526,32.979 L34.5266667,1 C34.5266667,0.600652308 34.9717394,0.36245661 35.3040168,0.583974853 Z M34.526,33.98 L28.84,33.98 C25.6993407,33.98 23.1533333,36.5260074 23.1533333,39.6666667 C23.1533333,42.8073259 25.6993407,45.3533333 28.84,45.3533333 C31.9076207,45.3533333 34.4079261,42.9243679 34.5225603,39.8847931 L34.5266667,39.6666667 L34.526,33.98 Z M13.3733333,32.98 C13.6494757,32.98 13.8733333,33.2038576 13.8733333,33.48 C13.8733333,33.7254599 13.6964582,33.9296084 13.463209,33.9719443 L13.3733333,33.98 L1,33.98 C0.723857625,33.98 0.5,33.7561424 0.5,33.48 C0.5,33.2345401 0.676875161,33.0303916 0.910124368,32.9880557 L1,32.98 L13.3733333,32.98 Z M25.7466667,25.2466667 C26.022809,25.2466667 26.2466667,25.4705243 26.2466667,25.7466667 C26.2466667,25.9921266 26.0697915,26.196275 25.8365423,26.238611 L25.7466667,26.2466667 L1,26.2466667 C0.723857625,26.2466667 0.5,26.022809 0.5,25.7466667 C0.5,25.5012068 0.676875161,25.2970583 0.910124368,25.2547223 L1,25.2466667 L25.7466667,25.2466667 Z M25.7466667,17.5133333 C26.022809,17.5133333 26.2466667,17.737191 26.2466667,18.0133333 C26.2466667,18.2587932 26.0697915,18.4629417 25.8365423,18.5052777 L25.7466667,18.5133333 L1,18.5133333 C0.723857625,18.5133333 0.5,18.2894757 0.5,18.0133333 C0.5,17.7678734 0.676875161,17.563725 0.910124368,17.521389 L1,17.5133333 L25.7466667,17.5133333 Z M35.526,1.888 L35.526,9.796 L36.1235499,9.83256266 L36.6197875,9.86987484 L37.4705521,9.94523896 L38.1531054,10.0136945 L38.9282051,10.0983132 L39.7505351,10.1949855 L41.0738597,10.363228 L42.0168108,10.4913014 L43.0090285,10.632442 L44.0510944,10.7869396 L45.7089314,11.0443636 L46.89,11.235 L46.88336,11.0205005 C46.7198677,7.25212 45.3267455,5.63292361 41.610288,4.17864141 L41.0634424,3.97179441 L40.4842782,3.76590558 L39.8720869,3.55968935 L38.7063819,3.18029795 L38.1191865,2.98172925 L37.5868905,2.79310584 L37.1025012,2.61092065 C37.0253734,2.58089813 36.9499503,2.55099775 36.8760863,2.52114643 L36.4504458,2.34204282 C36.1776041,2.22225361 35.9250458,2.10091143 35.6834472,1.9733402 L35.526,1.888 Z M25.7466667,9.78 C26.022809,9.78 26.2466667,10.0038576 26.2466667,10.28 C26.2466667,10.5254599 26.0697915,10.7296084 25.8365423,10.7719443 L25.7466667,10.78 L1,10.78 C0.723857625,10.78 0.5,10.5561424 0.5,10.28 C0.5,10.0345401 0.676875161,9.83039163 0.910124368,9.78805567 L1,9.78 L25.7466667,9.78 Z" id="Combined-Shape"></path>
            </g>
        </g>
    </g>
</svg>