<?xml version="1.0" encoding="UTF-8"?>
<svg width="24px" height="24px" viewBox="0 0 24 24" version="1.1" xmlns="http://www.w3.org/2000/svg" xmlns:xlink="http://www.w3.org/1999/xlink">
    <title>profile_slate_24x24_1px_icn</title>
    <g id="profile_slate_24x24_1px_icn" stroke="none" stroke-width="1" fill="none" fill-rule="evenodd">
        <g fill="#263238" fill-rule="nonzero" id="profile">
            <g transform="translate(1.000000, 1.000000)">
                <path d="M11,-0.5 C17.3512746,-0.5 22.5,4.64872538 22.5,11 C22.5,14.6083615 20.8381262,17.8285716 18.238021,19.9369881 C18.2352377,19.9395381 18.2324804,19.9416468 18.229704,19.9437242 C16.2547023,21.5423154 13.7391907,22.5 11,22.5 C8.25987866,22.5 5.74358855,21.5416646 3.76801576,19.9418799 C3.7618011,19.9373098 3.75533694,19.9321682 3.74898883,19.9268534 C1.1563067,17.8177742 -0.5,14.6023127 -0.5,11 C-0.5,4.64872538 4.64872538,-0.5 11,-0.5 Z M8.24365459,5.94610278 C8.18058525,5.99031026 8.10845404,6.01914871 8.03300665,6.03080496 L7.95666667,6.03666667 C6.97967115,6.03666667 6.6708772,7.75709005 7.30372951,10.1768195 C7.37906812,10.4648788 7.18833135,10.746974 6.90695624,10.7958833 L6.82,10.8033333 C6.63370291,10.8033333 6.54844704,10.8927852 6.48702975,11.1441956 C6.45864194,11.2604005 6.44581134,11.3737472 6.44155363,11.5132311 L6.44,11.6966667 C6.44,12.2884833 6.78751893,13.36 7.04,13.36 C7.26828975,13.36 7.46759008,13.5146264 7.52431744,13.7357558 C7.76038516,14.6559735 8.25747661,15.4883127 8.95571383,16.1325126 C9.03779171,16.2082383 9.0915548,16.3086553 9.10977692,16.4172647 L9.11666667,16.5 L9.11666667,16.8666667 C9.11666667,17.4383884 9.03378399,17.7916528 8.67045587,18.2023482 C8.20629553,18.7270213 7.36021137,19.1175726 6.00524319,19.3959212 L5.72742681,19.4501014 C5.48710283,19.489435 5.25161321,19.551307 5.02398982,19.6345891 C6.72047451,20.8108952 8.77976274,21.5 11,21.5 C13.2272467,21.5 15.2925265,20.8065373 16.9917051,19.623746 C16.7562921,19.5294415 16.5119646,19.4585822 16.2622887,19.411641 C14.7542973,19.1323833 13.8246485,18.7253328 13.3295441,18.1656815 C13.0065858,17.800619 12.905214,17.480934 12.8866741,17.0128614 L12.8833333,16.83 L12.8833333,16.4633333 C12.8833333,16.3253083 12.9403895,16.1934227 13.0409865,16.0989178 C13.7216001,15.4595216 14.2064732,14.6398551 14.4390946,13.7354494 C14.4959325,13.51447 14.6951614,13.36 14.9233333,13.36 C15.1859955,13.36 15.4835099,12.4765492 15.5196731,11.8238085 L15.5234377,11.6589139 C15.5242843,11.4404297 15.5152688,11.2974102 15.4808105,11.1478139 C15.4293457,10.9243857 15.3585286,10.8282139 15.2112839,10.807662 L15.1433333,10.8033333 C14.7951877,10.8033333 14.5536112,10.4564124 14.6743815,10.1298854 C16.3480535,5.60477217 12.105299,3.23934267 8.24365459,5.94610278 Z M11,0.5 C5.20101013,0.5 0.5,5.20101013 0.5,11 C0.5,14.1712117 1.90584346,17.0140711 4.12829803,18.9393458 C4.49848937,18.7467981 4.89159495,18.6046904 5.29425542,18.5153587 L5.55562204,18.4650257 C6.86463857,18.2226152 7.60362184,17.8990483 7.92147805,17.5397531 C8.06350986,17.3792046 8.10642729,17.2518838 8.1149374,16.9884125 L8.116,16.711 L8.07271148,16.6691027 C7.47336087,16.0602218 7.01349698,15.3296854 6.72350823,14.5283765 L6.644,14.29 L6.55113934,14.252288 C6.18697119,14.0767231 5.92664193,13.6965331 5.73864816,13.1858735 L5.68438859,13.0288357 C5.55318638,12.6242955 5.46447802,12.1218025 5.44435097,11.8152119 L5.43990393,11.6667572 C5.43867138,11.3771524 5.45331807,11.1618181 5.51559637,10.9068832 C5.6184147,10.4859985 5.83192466,10.1501924 6.16171743,9.96401517 L6.217,9.936 L6.17050752,9.71625408 C5.66740557,7.22633981 6.09113322,5.27808293 7.65085528,5.05749186 L7.794,5.042 L7.85122519,5.00349093 C12.2176332,2.11100829 17.2205574,4.76730809 15.8210755,9.83144991 L15.785,9.953 L15.8110668,9.96637191 C16.1071658,10.1343007 16.3081219,10.4222227 16.4182458,10.7842187 L16.4552929,10.9233498 C16.5004286,11.1193008 16.5176761,11.2888963 16.5221928,11.4977563 L16.5233333,11.6966667 C16.5233333,12.0061906 16.4398032,12.5802704 16.2935462,13.0399352 C16.1079001,13.6233945 15.8293562,14.061015 15.4214274,14.2529222 L15.317,14.294 L15.2426799,14.5195133 C14.9583543,15.3076187 14.5097097,16.0276093 13.9254258,16.6310026 L13.883,16.672 L13.8833333,16.83 C13.8833333,17.1358281 13.9084968,17.2813089 14.0235308,17.4358205 L14.078522,17.5030864 C14.3963782,17.8623817 15.1353614,18.1859485 16.4457171,18.4286089 C16.9466811,18.5227924 17.4294514,18.6932904 17.8773733,18.9335186 C20.0962525,17.009831 21.5,14.1688469 21.5,11 C21.5,5.20101013 16.7989899,0.5 11,0.5 Z" id="Combined-Shape"></path>
            </g>
        </g>
    </g>
</svg>