<?xml version="1.0" encoding="UTF-8"?>
<svg width="48px" height="48px" viewBox="0 0 48 48" version="1.1" xmlns="http://www.w3.org/2000/svg" xmlns:xlink="http://www.w3.org/1999/xlink">
    <title>profile_48x48_1px_icn</title>
    <g id="profile_48x48_1px_icn" stroke="none" stroke-width="1" fill="none" fill-rule="evenodd">
        <g fill="#263238" fill-rule="nonzero" id="orion_male_profile">
            <g transform="translate(2.000000, 2.000000)">
                <path d="M22,-0.5 C34.4264069,-0.5 44.5,9.57359313 44.5,22 C44.5,34.4264069 34.4264069,44.5 22,44.5 C16.6329092,44.5 11.7047272,42.620808 7.83752692,39.4844969 C7.83225108,39.4809616 7.82715681,39.4769333 7.82213358,39.4727976 C2.7445848,35.3468565 -0.5,29.052335 -0.5,22 C-0.5,9.57359313 9.57359313,-0.5 22,-0.5 Z M16.2003213,11.4827694 C16.1162288,11.5417128 16.0160264,11.5733333 15.9133333,11.5733333 C13.46356,11.5733333 12.7841912,15.3583885 14.1237295,20.4801528 C14.206602,20.7970181 13.9675232,21.1066667 13.64,21.1066667 C13.0022154,21.1066667 12.6604386,21.4652647 12.4883428,22.169735 C12.4150805,22.4696327 12.3871666,22.7504872 12.3810425,23.1049087 L12.38,23.3933333 C12.38,23.794391 12.5439121,24.8188413 12.7956114,25.5949143 C13.113257,26.5743217 13.5306159,27.1411322 13.9826325,27.212354 L14.08,27.22 C14.3082898,27.22 14.5075901,27.3746264 14.5643174,27.5957558 C15.060411,29.5295828 16.105043,31.278734 17.5723805,32.6325126 C17.6544584,32.7082383 17.7082215,32.8086553 17.7264436,32.9172647 L17.7333333,33 L17.7333333,33.7333333 C17.7333333,34.7656749 17.592576,35.3656138 16.9664228,36.0733988 C16.1024042,37.0500599 14.4463732,37.8000909 11.7339064,38.3378308 L11.3740935,38.406768 C10.5625749,38.5395888 9.77694323,38.7930969 9.04294337,39.157713 C12.6461094,41.8836766 17.1342984,43.5 22,43.5 C26.8715505,43.5 31.3646803,41.8797884 34.9699246,39.14883 C34.2302892,38.7617306 33.4369861,38.4860626 32.615622,38.331641 C29.6991266,37.7915493 27.9351618,37.0191901 27.0335772,36.0000655 C26.4521492,35.3428365 26.2892514,34.7785974 26.2689467,33.8747945 L26.2666667,33.66 L26.2666667,32.9266667 C26.2666667,32.7886416 26.3237229,32.6567561 26.4243198,32.5622512 C27.8546215,31.2185672 28.8735767,29.4960477 29.3624279,27.5954494 C29.4121611,27.4020924 29.5709124,27.2596567 29.7626805,27.227069 L29.8466667,27.22 C30.3735186,27.22 30.8284774,26.6597762 31.1577038,25.6250648 C31.3796785,24.9274301 31.5195197,24.0416061 31.5431109,23.5337763 L31.5468716,23.3197652 C31.5487048,22.846668 31.5287595,22.5302596 31.4488622,22.1833958 C31.2840889,21.4680535 30.9431395,21.1066667 30.2866667,21.1066667 C29.9385211,21.1066667 29.6969446,20.7597458 29.8177148,20.4332187 C33.3548753,10.8697849 24.2872327,5.81437356 16.2003213,11.4827694 Z M22,0.5 C10.1258779,0.5 0.5,10.1258779 0.5,22 C0.5,28.6165247 3.4888024,34.5349772 8.18996143,38.4789118 L7.87856759,38.6604589 C8.78553933,38.1041297 9.78103217,37.709397 10.8134865,37.4940177 L11.2022887,37.4216923 C13.9198092,36.9184478 15.4931085,36.2295723 16.217445,35.4108038 C16.6071632,34.9702778 16.7158875,34.6085823 16.7313019,33.9273467 L16.7333333,33.7333333 L16.733,33.214 L16.6151736,33.1010568 C15.3353655,31.8371501 14.3754309,30.2884196 13.812438,28.5839097 L13.685,28.174 L13.6235261,28.1608442 C12.8539325,27.9527187 12.3042047,27.2072429 11.9154151,26.1126921 L11.8443886,25.903419 C11.5842139,25.1012137 11.4108107,24.0861012 11.383717,23.532397 L11.3798033,23.3313864 C11.3775002,22.7902257 11.4045668,22.3922948 11.5169094,21.9324226 C11.7273902,21.0708241 12.1881271,20.4450203 12.9321357,20.2094333 L13.019,20.185 L13.0057061,20.1287158 C11.7534104,14.8328986 12.5635933,10.7278181 15.731498,10.5775942 L15.753,10.577 L15.8911799,10.4821106 C24.3811491,4.7767823 34.034986,9.96483422 31.0675713,19.8496703 L30.957,20.196 L30.9725896,20.2003297 C31.6962273,20.4152777 32.1546885,20.9874901 32.3788784,21.7847043 L32.4233446,21.9589317 C32.5082268,22.3274369 32.5388836,22.6507622 32.5455218,23.0638999 L32.5466667,23.3933333 C32.5466667,23.9624406 32.3870296,25.0595827 32.1106296,25.9282685 C31.7304411,27.1231466 31.1535623,27.9425079 30.3152558,28.1614316 L30.239,28.177 L30.2302973,28.2102737 C29.6973506,30.0283056 28.7177946,31.6842217 27.3810899,33.026791 L27.266,33.138 L27.2666667,33.66 C27.2666667,34.4026262 27.3429145,34.7894967 27.683094,35.2189822 L27.782555,35.3374704 C28.5068915,36.1562389 30.0801908,36.8451145 32.7990504,37.3486089 C33.8622737,37.5484997 34.8823524,37.9293628 35.8151568,38.4737516 C40.5133257,34.5307623 43.5,28.6141687 43.5,22 C43.5,10.1258779 33.8741221,0.5 22,0.5 Z" id="Combined-Shape"></path>
            </g>
        </g>
    </g>
</svg>