<svg xmlns="http://www.w3.org/2000/svg" width="40" height="40" viewBox="0 0 40 40">
  <path fill="#4B5A6E" d="M4.09 40h30c2.26 0 4.092-1.832 4.092-4.09V9.544c0-2.259-1.832-4.09-4.091-4.09h-5.91v-5c0-.251-.203-.455-.454-.455-.25 0-.454.204-.454.455v5H10.909v-5c0-.251-.203-.455-.454-.455S10 .204 10 .455v5H4.09C1.833 5.455 0 7.286 0 9.545V35.91C0 38.17 1.832 40 4.09 40zm0-33.636H10v5c0 .25.204.454.455.454.25 0 .454-.203.454-.454v-5h16.364v5c0 .25.203.454.454.454s.455-.203.455-.454v-5h5.909c1.757 0 3.182 1.424 3.182 3.181v5.605H.909V9.545c0-1.757 1.425-3.181 3.182-3.181zM.91 16.059h36.363v19.85c0 1.757-1.425 3.182-3.182 3.182h-30c-1.757 0-3.182-1.425-3.182-3.182V16.06z"/>
</svg>