<?xml version="1.0" encoding="UTF-8"?>
<svg width="47px" height="45px" viewBox="0 0 47 45" version="1.1" xmlns="http://www.w3.org/2000/svg" xmlns:xlink="http://www.w3.org/1999/xlink">
    <title>setlists_48x48_1px_icn</title>
    <g id="Icons---editable-and-outlined" stroke="none" stroke-width="1" fill="none" fill-rule="evenodd">
        <g id="Web-portal-48x48px-outlined" transform="translate(-336.000000, -241.000000)" fill="#263238" fill-rule="nonzero">
            <g id="Group" transform="translate(336.000000, 240.000000)">
                <g id="music-file-5095_81b5e2fe-0f1b-41bb-ad33-870cf95c73bc" transform="translate(1.000000, 2.000000)">
                    <path d="M39,-0.5 C39.2454599,-0.5 39.4496084,-0.323124839 39.4919443,-0.0898756324 L39.5,0 L39.5,5.5 L45,5.5 C45.2454599,5.5 45.4496084,5.67687516 45.4919443,5.91012437 L45.5,6 L45.5,43.5 C45.5,43.7761424 45.2761424,44 45,44 L45,44 L6,44 C5.72385763,44 5.5,43.7761424 5.5,43.5 L5.5,43.5 L5.5,38 L0,38 C-0.245459889,38 -0.44960837,37.8231248 -0.491944331,37.5898756 L-0.5,37.5 L-0.5,0 C-0.5,-0.245459889 -0.323124839,-0.44960837 -0.0898756324,-0.491944331 L0,-0.5 L39,-0.5 Z M44.5,6.5 L6.5,6.5 L6.5,43 L44.5,43 L44.5,6.5 Z M38.5,5.5 L38.5,0.5 L0.5,0.5 L0.5,37 L5.5,37 L5.5,6 C5.5,5.75454011 5.67687516,5.55039163 5.91012437,5.50805567 L6,5.5 L38.5,5.5 Z M33.492643,13.4136065 L33.5,13.5 L33.5,30 C33.5,31.9329966 31.9329966,33.5 30,33.5 C28.0670034,33.5 26.5,31.9329966 26.5,30 C26.5,28.1314366 27.9642776,26.6048736 29.8079648,26.5051789 L30,26.5 L32.5,26.5 L32.5,14.14 L21.5,16.89 L21.5,33 C21.5,34.8685634 20.0357224,36.3951264 18.1920352,36.4948211 L18,36.5 C16.0670034,36.5 14.5,34.9329966 14.5,33 C14.5,31.1314366 15.9642776,29.6048736 17.8079648,29.5051789 L18,29.5 L20.5,29.5 L20.5,16.5 C20.5,16.2992454 20.6195513,16.1210325 20.7985527,16.0423377 L20.8787322,16.0149287 L32.8787322,13.0149287 C33.1656171,12.9432075 33.4443375,13.1339428 33.492643,13.4136065 Z M20.5,30.5 L18,30.5 C16.6192881,30.5 15.5,31.6192881 15.5,33 C15.5,34.3807119 16.6192881,35.5 18,35.5 C19.3254834,35.5 20.4100387,34.4684641 20.4946823,33.1643757 L20.5,33 L20.5,30.5 Z M32.5,27.5 L30,27.5 C28.6192881,27.5 27.5,28.6192881 27.5,30 C27.5,31.3807119 28.6192881,32.5 30,32.5 C31.3254834,32.5 32.4100387,31.4684641 32.4946823,30.1643757 L32.5,30 L32.5,27.5 Z" id="Combined-Shape"></path>
                </g>
            </g>
        </g>
    </g>
</svg>