<?xml version="1.0" encoding="UTF-8"?>
<svg width="24px" height="23px" viewBox="0 0 24 23" version="1.1" xmlns="http://www.w3.org/2000/svg" xmlns:xlink="http://www.w3.org/1999/xlink">
    <title>setlists_24x24_1px_icn</title>
    <g id="Icons---editable-and-outlined" stroke="none" stroke-width="1" fill="none" fill-rule="evenodd">
        <g id="Web-portal-24x24px-outlined" transform="translate(-72.000000, -169.000000)" fill="#263238" fill-rule="nonzero">
            <g id="Group" transform="translate(72.000000, 168.000000)">
                <g id="music-file-5095_81b5e2fe-0f1b-41bb-ad33-870cf95c73bc" transform="translate(0.000000, 1.000000)">
                    <path d="M20.0666667,0.5 C20.3121266,0.5 20.516275,0.676875161 20.558611,0.910124368 L20.5666667,1 L20.566,3.433 L23,3.43333333 C23.2454599,3.43333333 23.4496084,3.61020849 23.4919443,3.8434577 L23.5,3.93333333 L23.5,22.2666667 C23.5,22.542809 23.2761424,22.7666667 23,22.7666667 L23,22.7666667 L3.93333333,22.7666667 C3.65719096,22.7666667 3.43333333,22.542809 3.43333333,22.2666667 L3.43333333,22.2666667 L3.433,19.833 L1,19.8333333 C0.754540111,19.8333333 0.55039163,19.6564582 0.508055669,19.423209 L0.5,19.3333333 L0.5,1 C0.5,0.754540111 0.676875161,0.55039163 0.910124368,0.508055669 L1,0.5 L20.0666667,0.5 Z M22.5,4.433 L4.433,4.433 L4.433,21.766 L22.5,21.766 L22.5,4.433 Z M17.6259764,7.51360655 L17.6333333,7.6 L17.6333333,15.6666667 C17.6333333,16.7528267 16.7528267,17.6333333 15.6666667,17.6333333 C14.5805067,17.6333333 13.7,16.7528267 13.7,15.6666667 C13.7,14.6298776 14.5022798,13.780471 15.519892,13.7053943 L15.6666667,13.7 L16.633,13.7 L16.633,8.24 L11.766,9.456 L11.7666667,17.1333333 C11.7666667,18.1701224 10.9643868,19.019529 9.94677464,19.0946057 L9.8,19.1 C8.71383999,19.1 7.83333333,18.2194933 7.83333333,17.1333333 C7.83333333,16.0965442 8.63561316,15.2471376 9.65322536,15.172061 L9.8,15.1666667 L10.766,15.166 L10.7666667,9.06666667 C10.7666667,8.86591207 10.886218,8.68769922 11.0652194,8.6090044 L11.1453989,8.58159542 L17.0120655,7.11492875 C17.2989504,7.04320753 17.5776709,7.2339428 17.6259764,7.51360655 Z M19.566,3.433 L19.566,1.5 L1.5,1.5 L1.5,18.833 L3.433,18.833 L3.43333333,3.93333333 C3.43333333,3.68787344 3.61020849,3.48372496 3.8434577,3.441389 L3.93333333,3.43333333 L19.566,3.433 Z M10.766,16.166 L9.8,16.1666667 C9.26612474,16.1666667 8.83333333,16.5994581 8.83333333,17.1333333 C8.83333333,17.6672086 9.26612474,18.1 9.8,18.1 C10.2957413,18.1 10.7043236,17.7268278 10.7601632,17.2460671 L10.7666667,17.1333333 L10.766,16.166 Z M16.633,14.7 L15.6666667,14.7 C15.1327914,14.7 14.7,15.1327914 14.7,15.6666667 C14.7,16.2005419 15.1327914,16.6333333 15.6666667,16.6333333 C16.162408,16.6333333 16.5709903,16.2601611 16.6268299,15.7794004 L16.6333333,15.6666667 L16.633,14.7 Z" id="Combined-Shape"></path>
                </g>
            </g>
        </g>
    </g>
</svg>