<svg xmlns="http://www.w3.org/2000/svg" viewBox="0 0 64 64" aria-labelledby="title"
aria-describedby="desc" role="img" xmlns:xlink="http://www.w3.org/1999/xlink">
  <title>Male User</title>
  <desc>A line styled icon from Orion Icon Library.</desc>
  <path data-name="layer2"
  d="M50.9 55.3a12.2 12.2 0 0 0-4.3-1.7c-8.1-1.5-8.1-4.1-8.1-5.7v-1a14.8 14.8 0 0 0 4.2-7.1c2.5 0 3-5.1 3-5.9s.1-3.8-2.4-3.8c5.4-14.6-8.9-20.5-19.6-13-4.4 0-4.8 6.5-3.1 13-2.5 0-2.4 3.1-2.4 3.8s.6 5.9 3 5.9a14.8 14.8 0 0 0 4.3 7.2v1c0 1.6 0 4.2-8.1 5.7a11.9 11.9 0 0 0-4.3 1.6"
  fill="none" stroke="#202020" stroke-miterlimit="10" stroke-width="2" stroke-linejoin="round"
  stroke-linecap="round"></path>
  <circle data-name="layer1" cx="32" cy="32" r="30" fill="none" stroke="#202020"
  stroke-miterlimit="10" stroke-width="2" stroke-linejoin="round" stroke-linecap="round"></circle>
</svg>