<?xml version="1.0" encoding="UTF-8"?>
<svg width="48px" height="48px" viewBox="0 0 48 48" version="1.1" xmlns="http://www.w3.org/2000/svg" xmlns:xlink="http://www.w3.org/1999/xlink">
    <title>claim_48x48_1px_icn</title>
    <g id="claim_48x48_1px_icn" stroke="none" stroke-width="1" fill="none" fill-rule="evenodd">
        <g fill="#263238" fill-rule="nonzero" id="Microphone">
            <g transform="translate(0.000000, 1.000000)">
                <path d="M37.9296811,24.9729547 L37.9173592,24.9772564 C37.2350414,25.2081007 36.5273743,25.3836515 35.8,25.5 L35.8,25.5 L31.2489636,25.4997852 L8.81171355,43.3909407 C8.63762246,43.5297509 8.39660753,43.5347803 8.21853244,43.4133273 L8.14644661,43.3535534 L6.20896363,41.4157852 L1.64858943,46.0312894 C1.45447856,46.2276961 1.13790154,46.2295572 0.941494863,46.0354464 C0.766911152,45.8629034 0.746042447,45.593597 0.879890578,45.3979386 L0.937337936,45.3283518 L5.50196363,40.7087852 L3.64644661,38.8535534 C3.48881286,38.6959196 3.456947,38.4566322 3.55806594,38.2659955 L3.6095656,38.1876525 L21.5009636,15.8217852 L21.5049821,11.3545923 C22.3615337,5.33240435 27.3998638,0.802285372 33.4485707,0.560485673 L33.7569874,0.551900153 L34.0655216,0.550785213 C40.1188407,0.602302972 45.2971166,4.97187283 46.3434774,10.9695011 C46.8840535,14.2833608 46.0849842,17.6761836 44.1223153,20.4004852 C42.6647512,22.4236713 40.6542529,23.9548748 38.3256687,24.8313911 C38.2420623,24.9151595 38.1313466,24.9634458 38.0179426,24.9731636 L37.9296811,24.9729547 L37.9296811,24.9729547 Z M21.5994918,17.2996994 L4.67,38.463 L8.537,42.33 L29.7536519,25.415338 C29.2695149,25.2922195 28.8244604,25.0388275 28.4714466,24.6785534 L28.4714466,24.6785534 L22.3250507,18.5321211 C21.9761354,18.1902129 21.7277134,17.7647907 21.5994918,17.2996994 Z M20.8535534,26.1464466 C21.0271197,26.320013 21.0464049,26.5894374 20.9114088,26.7843055 L20.8535534,26.8535534 L17.8535534,29.8535534 C17.6582912,30.0488155 17.3417088,30.0488155 17.1464466,29.8535534 C16.9728803,29.679987 16.9535951,29.4105626 17.0885912,29.2156945 L17.1464466,29.1464466 L20.1464466,26.1464466 C20.3417088,25.9511845 20.6582912,25.9511845 20.8535534,26.1464466 Z M22.7924418,10.0189459 C22.6667081,10.4764423 22.5685565,10.9457179 22.4999493,11.425 L22.4999493,11.425 L22.4999493,16.5928789 C22.5065241,17.0544751 22.6952243,17.4947756 23.0285534,17.8214466 L23.0285534,17.8214466 L29.1821211,23.9750507 C29.5052244,24.3047757 29.9455249,24.4934759 30.4,24.5 L30.4,24.5 L31.0754187,24.4999816 C31.0821172,24.4999915 31.0888126,24.5001353 31.0955008,24.5004127 L35.7201029,24.5064248 C36.1578924,24.435558 36.5890653,24.340146 37.0118468,24.2212855 Z M34.071617,1.55088666 L33.7727088,1.55177657 C28.9578762,1.62748148 24.7943591,4.6551469 23.1421736,8.95482447 L38.0740599,23.8667218 C40.1587107,23.0575169 41.9837337,21.6582013 43.3109465,19.8159507 C45.1184637,17.3070089 45.8543654,14.1823934 45.3574403,11.1359357 C44.3788092,5.52668952 39.4659809,1.46225971 33.7727088,1.55177657 Z" id="Combined-Shape"></path>
            </g>
        </g>
    </g>
</svg>