<svg xmlns="http://www.w3.org/2000/svg" width="41" height="47" viewBox="0 0 41 47">
  <g fill="none" fill-rule="evenodd">
      <g stroke="#4B5A6E" stroke-linecap="round" stroke-linejoin="round" stroke-width=".751">
          <path d="M2.503 16.803C4.254 7.054 12.79-.004 22.694.108c9.904.112 18.28 7.36 19.81 17.146" transform="translate(1) rotate(-90 23 23)"/>
          <path d="M37.716 14.838L42.655 17.758 45.574 12.82M43.17 22.56C41.42 32.31 32.883 39.367 22.98 39.255c-9.904-.112-18.28-7.36-19.81-17.146" transform="translate(1) rotate(-90 23 23)"/>
          <path d="M7.957 24.525L3.018 21.605 0.099 26.543" transform="translate(1) rotate(-90 23 23)"/>
      </g>
      <path fill="#4B5A6E" fill-rule="nonzero" d="M22.51 17.085c.005.007.01.015.017.022.41.468.635 1.17.635 1.976 0 .237.188.429.419.429.231 0 .419-.192.419-.43 0-1.01-.298-1.911-.84-2.537-.713-.923-1.94-1.396-3.199-1.478V13.43c0-.237-.187-.429-.419-.429-.231 0-.419.192-.419.429v1.642c-.884.064-1.73.318-2.367.745l-.01.007c-1.093.776-1.746 1.995-1.746 3.26 0 1.632 1.009 3.111 2.633 3.861.446.218.966.33 1.49.42v6.7c-1.018-.063-2.001-.433-2.55-1.15-.502-.656-.735-1.29-.735-1.996 0-.236-.188-.429-.419-.429-.231 0-.419.193-.419.43 0 .895.299 1.72.914 2.524.725.947 1.954 1.42 3.21 1.487v1.641c0 .237.187.429.418.429.232 0 .42-.192.42-.429v-1.657c.89-.08 1.74-.36 2.372-.818C23.408 29.333 24 28.204 24 26.918c0-1.636-.944-3.115-2.463-3.86l-.011-.006c-.484-.219-1.026-.33-1.565-.42v-6.7c1.024.076 2.01.45 2.548 1.153zm-4.52 5.083l-.009-.004c-1.322-.609-2.143-1.79-2.143-3.081 0-.982.516-1.936 1.381-2.552.503-.336 1.186-.538 1.904-.596v6.558c-.423-.076-.814-.168-1.133-.325zm3.19 1.666c1.223.602 1.982 1.783 1.982 3.084 0 1.278-.71 2.05-1.308 2.476-.496.358-1.175.58-1.893.653v-6.545c.437.077.864.172 1.22.332z" transform="translate(1)"/>
  </g>
</svg>